<svg id="SvgjsSvg1025" width="288" height="288" xmlns="http://www.w3.org/2000/svg" version="1.1" xmlns:xlink="http://www.w3.org/1999/xlink" xmlns:svgjs="http://svgjs.com/svgjs"><defs id="SvgjsDefs1026"></defs><g id="SvgjsG1027"><svg xmlns="http://www.w3.org/2000/svg" xmlns:svgjs="http://svgjs.com/svgjs" xmlns:xlink="http://www.w3.org/1999/xlink" viewBox="0 0 288 288" width="288" height="288"><svg xmlns="http://www.w3.org/2000/svg" viewBox="0 -960 960 960" width="288" height="288"><path fill="#3d146d" d="M580-240q-42 0-71-29t-29-71q0-42 29-71t71-29q42 0 71 29t29 71q0 42-29 71t-71 29ZM206.783-60.782q-44.305 0-75.153-30.848-30.848-30.848-30.848-75.153v-546.434q0-44.305 30.848-75.153 30.848-30.848 75.153-30.848H240v-33.783q0-19.261 13.761-32.739 13.761-13.478 33.022-13.478t32.739 13.478q13.479 13.478 13.479 32.739v33.783h293.998v-33.783q0-19.261 13.761-32.739 13.761-13.478 33.022-13.478t32.74 13.478Q720-872.262 720-853.001v33.783h33.217q44.305 0 75.153 30.848 30.848 30.848 30.848 75.153v546.434q0 44.305-30.848 75.153-30.848 30.848-75.153 30.848H206.783Zm0-106.001h546.434V-560H206.783v393.217Zm0-473.217h546.434v-73.217H206.783V-640Zm0 0v-73.217V-640Z" class="color000 svgShape color1b6c72"></path></svg></svg></g></svg>