<svg id="SvgjsSvg1001" width="288" height="288" xmlns="http://www.w3.org/2000/svg" version="1.1" xmlns:xlink="http://www.w3.org/1999/xlink" xmlns:svgjs="http://svgjs.com/svgjs"><defs id="SvgjsDefs1002"></defs><g id="SvgjsG1008"><svg xmlns="http://www.w3.org/2000/svg" xmlns:svgjs="http://svgjs.com/svgjs" xmlns:xlink="http://www.w3.org/1999/xlink" viewBox="0 0 288 288" width="288" height="288"><svg xmlns="http://www.w3.org/2000/svg" fill-rule="evenodd" stroke-linejoin="round" stroke-miterlimit="2" clip-rule="evenodd" viewBox="0 0 533 267" width="288" height="288"><path fill="#f5c748" d="M635.521,446.12L763.405,446.12L763.405,445.653L713.711,445.653L763.339,443.054L763.299,442.308L713.669,444.909L763.094,439.715L763.015,438.973L713.59,444.165L762.676,436.391L762.563,435.656L713.479,443.432L762.085,433.097L761.93,432.366L713.322,442.699L761.322,429.838L761.13,429.118L713.13,441.98L760.392,426.622L760.162,425.913L712.895,441.27L759.293,423.46L759.025,422.763L712.631,440.573L758.027,420.361L757.728,419.678L712.325,439.892L756.604,417.331L756.265,416.664L711.986,439.228L755.021,414.379L754.656,413.732L711.611,438.585L753.294,411.514L752.888,410.888L711.206,437.956L751.416,408.744L750.975,408.14L710.769,437.351L749.39,406.076L748.922,405.496L710.3,436.773L747.232,403.519L746.735,402.965L709.797,436.219L744.941,401.076L744.412,400.55L709.27,435.691L742.523,398.759L741.974,398.26L708.716,435.194L739.991,396.57L739.413,396.098L708.139,434.723L737.346,394.515L736.743,394.077L707.53,434.286L734.601,392.605L733.975,392.198L706.906,433.879L731.757,390.837L731.11,390.465L706.26,433.506L728.822,389.224L728.158,388.885L705.595,433.168L725.811,387.765L725.131,387.461L704.916,432.866L722.731,386.467L722.034,386.198L704.219,432.599L719.578,385.329L718.867,385.099L703.511,432.366L716.376,384.361L715.652,384.165L702.791,432.176L713.12,383.558L712.393,383.404L702.058,432.021L709.835,382.93L709.098,382.814L701.324,431.904L706.517,382.474L705.777,382.395L700.582,431.828L703.181,382.191L702.438,382.152L699.838,431.789L699.838,382.083L699.089,382.083L699.089,431.781L696.486,382.152L695.746,382.191L698.345,431.818L693.147,382.395L692.411,382.473L697.603,431.899L689.83,382.814L689.091,382.93L696.869,432.017L686.534,383.404L685.805,383.558L696.136,432.173L683.274,384.165L682.555,384.36L695.415,432.364L680.06,385.099L679.348,385.329L694.708,432.599L676.896,386.198L676.195,386.465L694.011,432.864L673.795,387.461L673.116,387.765L693.328,433.168L670.766,388.883L670.103,389.224L692.665,433.504L667.816,390.465L667.17,390.835L692.017,433.878L664.952,392.198L664.323,392.604L691.392,434.284L662.181,394.077L661.576,394.514L690.792,434.723L659.513,396.098L658.931,396.568L690.211,435.192L656.957,398.26L656.399,398.758L689.656,435.691L654.514,400.55L653.984,401.076L689.129,436.219L652.193,402.965L651.693,403.517L688.627,436.773L650.005,405.496L649.535,406.075L688.158,437.351L647.951,408.14L647.511,408.742L687.721,437.958L646.039,410.888L645.633,411.514L687.314,438.581L644.271,413.732L643.899,414.377L686.94,439.228L642.658,416.664L642.319,417.329L686.601,439.892L641.201,419.678L640.898,420.359L686.295,440.573L639.901,422.763L639.632,423.458L686.029,441.27L638.767,425.913L638.533,426.622L685.797,441.98L637.797,429.118L637.6,429.838L685.607,442.699L636.996,432.366L636.838,433.097L685.452,443.432L636.363,435.656L636.252,436.391L685.337,444.167L635.911,438.973L635.832,439.715L685.257,444.909L635.626,442.308L635.589,443.054L685.219,445.653L635.521,445.653L635.521,446.12Z" class="color4c3721 svgShape color512fa1" transform="translate(-2648 -1591.846) scale(4.16667)"></path></svg></svg></g></svg>