<?xml version="1.0" encoding="UTF-8" standalone="no"?><!DOCTYPE svg PUBLIC "-//W3C//DTD SVG 1.1//EN" "http://www.w3.org/Graphics/SVG/1.1/DTD/svg11.dtd"><svg width="100%" height="100%" viewBox="0 0 1024 1018" version="1.1" xmlns="http://www.w3.org/2000/svg" xmlns:xlink="http://www.w3.org/1999/xlink" xml:space="preserve" xmlns:serif="http://www.serif.com/" style="fill-rule:evenodd;clip-rule:evenodd;stroke-linejoin:round;stroke-miterlimit:2;"><path id="facebook-logo-white-svg" d="M1024,511.999c0,-282.748 -229.251,-511.999 -511.999,-511.999c-282.748,0 -511.999,229.251 -511.999,511.999c0,255.532 187.203,467.359 432.006,505.807l0,-357.773l-130.034,0l0,-148.034l130.034,0l0,-112.825c0,-128.306 76.465,-199.227 193.395,-199.227c56.017,0 114.625,10.008 114.625,10.008l0,126.002l-64.585,0c-63.576,0 -83.449,39.456 -83.449,79.993l0,96.049l141.986,0l-22.68,148.034l-119.306,0l0,357.773c244.804,-38.376 432.006,-250.203 432.006,-505.807Z" style="fill:#fff;fill-rule:nonzero;"/></svg>