<?xml version="1.0" encoding="UTF-8" standalone="no"?>
<!DOCTYPE svg PUBLIC "-//W3C//DTD SVG 1.1//EN" "http://www.w3.org/Graphics/SVG/1.1/DTD/svg11.dtd">
<svg width="100%" height="100%" viewBox="0 0 288 34" version="1.1" xmlns="http://www.w3.org/2000/svg" xmlns:xlink="http://www.w3.org/1999/xlink" xml:space="preserve" xmlns:serif="http://www.serif.com/" style="fill-rule:evenodd;clip-rule:evenodd;stroke-linejoin:round;stroke-miterlimit:2;">
    <g transform="matrix(1,0,0,1,0,-145)">
        <g transform="matrix(1,0,0,1,-116.394,-119.378)">
            <path d="M368.163,279.958C362.379,279.958 359.93,277.917 355.864,274.551C351.012,270.529 344.367,265.035 332.126,265.035C319.899,265.035 313.254,270.529 308.416,274.551C304.35,277.917 301.902,279.958 296.131,279.958C290.376,279.958 287.927,277.917 283.861,274.551C279.024,270.529 272.393,265.035 260.166,265.035C247.94,265.035 241.295,270.529 236.457,274.551C232.391,277.917 229.943,279.958 224.187,279.958C218.431,279.958 215.997,277.917 211.946,274.551C207.094,270.529 200.463,265.035 188.251,265.035C176.039,265.035 169.423,270.544 164.585,274.565C160.549,277.917 158.1,279.958 152.374,279.958C146.617,279.958 144.169,277.917 140.103,274.551C135.265,270.529 128.635,265.035 116.409,265.035L116.409,282.93C122.164,282.93 124.613,284.97 128.679,288.336C133.516,292.359 140.147,297.852 152.374,297.852C164.585,297.852 171.201,292.344 176.039,288.322C180.076,284.97 182.524,282.93 188.251,282.93C194.007,282.93 196.441,284.97 200.492,288.336C205.345,292.359 211.975,297.852 224.187,297.852C236.413,297.852 243.044,292.359 247.881,288.336C251.948,284.97 254.396,282.93 260.166,282.93C265.922,282.93 268.37,284.97 272.437,288.336C277.275,292.359 283.905,297.852 296.131,297.852C308.358,297.852 315.003,292.359 319.841,288.336C323.907,284.97 326.355,282.93 332.126,282.93C337.911,282.93 340.373,284.97 344.44,288.336C349.292,292.359 355.937,297.852 368.163,297.852C380.405,297.852 387.05,292.359 391.902,288.336C395.968,284.97 398.608,282.93 404.394,282.93L404.394,265.035C392.152,265.035 385.329,270.529 380.477,274.551C376.412,277.917 373.949,279.958 368.163,279.958Z" style="fill:rgb(245,199,72);fill-rule:nonzero;"/>
        </g>
    </g>
</svg>
