<svg id="SvgjsSvg1016" width="288" height="288" xmlns="http://www.w3.org/2000/svg" version="1.1" xmlns:xlink="http://www.w3.org/1999/xlink" xmlns:svgjs="http://svgjs.com/svgjs"><defs id="SvgjsDefs1017"></defs><g id="SvgjsG1018"><svg xmlns="http://www.w3.org/2000/svg" viewBox="0 -960 960 960" width="288" height="288"><path d="M480-405.912 293.044-218.956Q278.087-203.999 256-203.999q-22.087 0-37.044-14.957-14.957-14.957-14.957-37.044 0-22.087 14.957-37.044L405.912-480 218.956-666.956Q203.999-681.913 203.999-704q0-22.087 14.957-37.044 14.957-14.957 37.044-14.957 22.087 0 37.044 14.957L480-554.088l186.956-186.956q14.957-14.957 37.044-14.957 22.087 0 37.044 14.957 14.957 14.957 14.957 37.044 0 22.087-14.957 37.044L554.088-480l186.956 186.956q14.957 14.957 14.957 37.044 0 22.087-14.957 37.044-14.957 14.957-37.044 14.957-22.087 0-37.044-14.957L480-405.912Z" fill="#3d146d" class="color000 svgShape"></path></svg></g></svg>