<svg id="SvgjsSvg1023" width="288" height="288" xmlns="http://www.w3.org/2000/svg" version="1.1" xmlns:xlink="http://www.w3.org/1999/xlink" xmlns:svgjs="http://svgjs.com/svgjs"><defs id="SvgjsDefs1024"></defs><g id="SvgjsG1025"><svg xmlns="http://www.w3.org/2000/svg" fill-rule="evenodd" stroke-linejoin="round" stroke-miterlimit="2" clip-rule="evenodd" viewBox="0 0 1141 1110" width="288" height="288"><path fill="#714dc3" fill-rule="nonzero" d="M846.603,807.62C762.606,952.639 733.279,931.331 845.243,806.632C712.945,916.558 697.811,895.728 843.24,803.874C690.045,871.825 678.843,837.349 842.721,802.276C671.076,813.446 671.076,787.698 842.721,798.867C678.843,763.795 690.045,729.319 843.24,797.27C697.811,705.416 712.945,684.585 845.243,794.512C733.279,669.812 762.606,648.505 846.603,793.524C782.939,633.732 807.427,625.776 849.845,792.471C832.56,625.776 868.81,625.776 851.525,792.471C893.943,625.776 918.431,633.732 854.767,793.524C938.764,648.505 968.091,669.812 856.126,794.512C988.424,684.585 1003.56,705.416 858.13,797.27C1011.32,729.319 1022.53,763.795 858.649,798.867C1030.29,787.698 1030.29,813.446 858.649,802.276C1022.53,837.349 1011.32,871.825 858.13,803.874C1003.56,895.728 988.424,916.558 856.126,806.632C968.091,931.331 938.764,952.639 854.767,807.62C918.431,967.411 893.943,975.368 851.525,808.673C868.81,975.368 832.56,975.368 849.845,808.673C807.427,975.368 782.939,967.411 846.603,807.62Z" transform="translate(-2974 -2781) scale(4.16667)" class="color414042 svgShape"></path></svg></g></svg>