<?xml version="1.0" encoding="UTF-8" standalone="no"?>
<!DOCTYPE svg PUBLIC "-//W3C//DTD SVG 1.1//EN" "http://www.w3.org/Graphics/SVG/1.1/DTD/svg11.dtd">
<svg width="100%" height="100%" viewBox="0 0 288 70" version="1.1" xmlns="http://www.w3.org/2000/svg" xmlns:xlink="http://www.w3.org/1999/xlink" xml:space="preserve" xmlns:serif="http://www.serif.com/" style="fill-rule:evenodd;clip-rule:evenodd;stroke-linejoin:round;stroke-miterlimit:2;">
    <g transform="matrix(1,0,0,1,0,-109)">
        <g transform="matrix(1,0,0,1,-116.394,-119.378)">
            <path d="M380.477,238.848C376.412,242.215 373.949,244.255 368.163,244.255C362.379,244.255 359.93,242.215 355.864,238.848C351.012,234.826 344.367,229.332 332.126,229.332C319.899,229.332 313.254,234.826 308.416,238.848C304.35,242.215 301.902,244.255 296.131,244.255C290.376,244.255 287.927,242.215 283.861,238.848C279.024,234.826 272.393,229.332 260.166,229.332C247.94,229.332 241.295,234.826 236.457,238.848C232.391,242.215 229.943,244.255 224.187,244.255C218.431,244.255 215.997,242.215 211.946,238.848C207.094,234.826 200.463,229.332 188.251,229.332C176.039,229.332 169.423,234.841 164.585,238.863C160.549,242.215 158.1,244.255 152.374,244.255C146.617,244.255 144.169,242.215 140.103,238.848C135.265,234.826 128.635,229.332 116.409,229.332L116.409,247.228C122.164,247.228 124.613,249.268 128.679,252.634C133.516,256.656 140.147,262.15 152.374,262.15C164.585,262.15 171.201,256.642 176.039,252.619C180.076,249.268 182.524,247.228 188.251,247.228C194.007,247.228 196.441,249.268 200.492,252.634C205.345,256.656 211.975,262.15 224.187,262.15C236.413,262.15 243.044,256.656 247.881,252.634C251.948,249.268 254.396,247.228 260.166,247.228C265.922,247.228 268.37,249.268 272.437,252.634C277.275,256.656 283.905,262.15 296.131,262.15C308.358,262.15 315.003,256.656 319.841,252.634C323.907,249.268 326.355,247.228 332.126,247.228C337.911,247.228 340.373,249.268 344.44,252.634C349.292,256.656 355.937,262.15 368.163,262.15C380.405,262.15 387.05,256.656 391.902,252.634C395.968,249.268 398.431,247.228 404.216,247.228L404.216,229.332C391.975,229.332 385.329,234.826 380.477,238.848ZM368.163,279.958C362.379,279.958 359.93,277.917 355.864,274.551C351.012,270.529 344.367,265.035 332.126,265.035C319.899,265.035 313.254,270.529 308.416,274.551C304.35,277.917 301.902,279.958 296.131,279.958C290.376,279.958 287.927,277.917 283.861,274.551C279.024,270.529 272.393,265.035 260.166,265.035C247.94,265.035 241.295,270.529 236.457,274.551C232.391,277.917 229.943,279.958 224.187,279.958C218.431,279.958 215.997,277.917 211.946,274.551C207.094,270.529 200.463,265.035 188.251,265.035C176.039,265.035 169.423,270.544 164.585,274.565C160.549,277.917 158.1,279.958 152.374,279.958C146.617,279.958 144.169,277.917 140.103,274.551C135.265,270.529 128.635,265.035 116.409,265.035L116.409,282.93C122.164,282.93 124.613,284.97 128.679,288.336C133.516,292.359 140.147,297.852 152.374,297.852C164.585,297.852 171.201,292.344 176.039,288.322C180.076,284.97 182.524,282.93 188.251,282.93C194.007,282.93 196.441,284.97 200.492,288.336C205.345,292.359 211.975,297.852 224.187,297.852C236.413,297.852 243.044,292.359 247.881,288.336C251.948,284.97 254.396,282.93 260.166,282.93C265.922,282.93 268.37,284.97 272.437,288.336C277.275,292.359 283.905,297.852 296.131,297.852C308.358,297.852 315.003,292.359 319.841,288.336C323.907,284.97 326.355,282.93 332.126,282.93C337.911,282.93 340.373,284.97 344.44,288.336C349.292,292.359 355.937,297.852 368.163,297.852C380.405,297.852 387.05,292.359 391.902,288.336C395.968,284.97 398.431,282.93 404.216,282.93L404.216,265.035C391.975,265.035 385.329,270.529 380.477,274.551C376.412,277.917 373.949,279.958 368.163,279.958Z" style="fill:rgb(245,199,72);fill-rule:nonzero;"/>
        </g>
    </g>
</svg>
