<?xml version="1.0" encoding="UTF-8" standalone="no"?>
<!DOCTYPE svg PUBLIC "-//W3C//DTD SVG 1.1//EN" "http://www.w3.org/Graphics/SVG/1.1/DTD/svg11.dtd">
<svg width="100%" height="100%" viewBox="0 0 288 36" version="1.1" xmlns="http://www.w3.org/2000/svg" xmlns:xlink="http://www.w3.org/1999/xlink" xml:space="preserve" xmlns:serif="http://www.serif.com/" style="fill-rule:evenodd;clip-rule:evenodd;stroke-linejoin:round;stroke-miterlimit:2;">
    <g transform="matrix(1,0,0,1,0,-126)">
        <g transform="matrix(1,0,0,1,-53.5579,-296.716)">
            <path d="M142.018,444.115C144.576,443.355 147.133,442.587 149.693,441.836C157.037,439.683 164.319,437.269 171.748,435.469C178.523,433.825 185.451,432.802 192.331,431.62C193.968,431.338 195.697,431.367 197.363,431.506C202.974,431.973 206.895,436.448 206.721,442.061C206.688,443.136 206.597,444.212 206.517,445.536C207.721,445.536 208.792,445.631 209.841,445.517C212.434,445.242 215.011,444.758 217.608,444.571C220.785,444.342 224.017,443.96 227.155,444.303C233.156,444.963 239.094,444.56 245.045,444.018C253.17,443.277 261.285,442.429 269.406,441.633C277.11,440.877 284.811,440.064 292.522,439.407C298.055,438.936 303.604,438.628 309.15,438.342C317.557,437.912 325.967,437.578 334.373,437.168C336.801,437.05 338.918,437.641 340.374,439.676C343.157,443.564 340.637,448.77 335.755,449.126C331.811,449.415 327.848,449.425 323.901,449.677C310.717,450.52 297.514,451.197 284.356,452.355C271.285,453.504 258.263,455.205 245.209,456.565C238.762,457.237 232.305,457.605 225.81,456.848C223.511,456.58 221.123,456.97 218.787,457.171C214.6,457.531 210.431,458.101 206.241,458.338C203.706,458.481 201.172,457.917 198.98,456.546C195.627,454.445 193.825,451.315 193.454,447.38C193.378,446.56 193.443,445.725 193.443,444.62C192.423,444.687 191.616,444.677 190.828,444.801C178.752,446.707 166.915,449.567 155.333,453.514C150.323,455.222 145.287,456.974 139.972,457.47C137.909,457.662 135.738,457.71 133.732,457.282C127.794,456.018 124.641,450.783 126.126,444.87C126.551,443.181 127.354,441.589 128.085,439.684C126.112,440.096 124.264,440.504 122.407,440.862C103.74,444.457 85.074,448.065 66.399,451.611C64.259,452.016 62.053,452.098 59.872,452.257C59.129,452.31 58.347,452.236 57.623,452.058C55.049,451.421 53.487,449.415 53.572,446.967C53.659,444.518 55.366,442.695 57.993,442.203C66.01,440.699 74.046,439.29 82.034,437.65C95.548,434.877 109.068,432.112 122.511,429.027C128.477,427.655 134.279,425.545 140.127,423.69C142.117,423.057 144.044,422.787 146.056,423.462C150.911,425.091 152.984,429.994 150.349,434.4C149.034,436.595 147.082,438.427 145.319,440.332C144.216,441.523 142.928,442.542 141.721,443.637C141.821,443.795 141.92,443.956 142.018,444.115Z" style="fill:rgb(245,199,72);fill-rule:nonzero;"/>
        </g>
    </g>
</svg>
