<svg id="SvgjsSvg1030" width="288" height="288" xmlns="http://www.w3.org/2000/svg" version="1.1" xmlns:xlink="http://www.w3.org/1999/xlink" xmlns:svgjs="http://svgjs.com/svgjs"><defs id="SvgjsDefs1031"></defs><g id="SvgjsG1032"><svg xmlns="http://www.w3.org/2000/svg" fill-rule="evenodd" stroke-linejoin="round" stroke-miterlimit="2" clip-rule="evenodd" viewBox="0 0 386 93" width="288" height="288"><g transform="translate(-156 -160)" fill="#512fa1" class="color000 svgShape"><path fill="#512fa1" fill-rule="nonzero" d="M509.945 173.623C504.496 178.135 501.195 180.869 493.441 180.869 485.688 180.869 482.406 178.135 476.957 173.623 470.453 168.232 461.547 160.869 445.141 160.869 428.754 160.869 419.848 168.232 413.363 173.623 407.914 178.135 404.633 180.869 396.898 180.869 389.184 180.869 385.902 178.135 380.453 173.623 373.969 168.232 365.082 160.869 348.695 160.869 332.309 160.869 323.402 168.232 316.918 173.623 311.469 178.135 308.188 180.869 300.473 180.869 292.758 180.869 289.496 178.135 284.066 173.623 277.563 168.232 268.676 160.869 252.309 160.869 235.941 160.869 227.074 168.252 220.59 173.643 215.18 178.135 211.898 180.869 204.223 180.869 196.508 180.869 193.227 178.135 187.777 173.623 181.293 168.232 172.406 160.869 156.02 160.869L156.02 184.854C163.734 184.854 167.016 187.588 172.465 192.1 178.949 197.49 187.836 204.854 204.223 204.854 220.59 204.854 229.457 197.471 235.941 192.08 241.352 187.588 244.633 184.854 252.309 184.854 260.023 184.854 263.285 187.588 268.715 192.1 275.219 197.49 284.105 204.854 300.473 204.854 316.859 204.854 325.746 197.49 332.23 192.1 337.68 187.588 340.961 184.854 348.695 184.854 356.41 184.854 359.691 187.588 365.141 192.1 371.625 197.49 380.512 204.854 396.898 204.854 413.285 204.854 422.191 197.49 428.676 192.1 434.125 187.588 437.406 184.854 445.141 184.854 452.895 184.854 456.195 187.588 461.645 192.1 468.148 197.49 477.055 204.854 493.441 204.854 509.848 204.854 518.754 197.49 525.258 192.1 530.707 187.588 534.008 184.854 541.762 184.854L541.762 160.869C525.355 160.869 516.448 168.232 509.945 173.623zM493.441 228.721C485.688 228.721 482.406 225.986 476.957 221.475 470.453 216.084 461.547 208.721 445.141 208.721 428.754 208.721 419.848 216.084 413.363 221.475 407.914 225.986 404.633 228.721 396.898 228.721 389.184 228.721 385.902 225.986 380.453 221.475 373.969 216.084 365.082 208.721 348.695 208.721 332.309 208.721 323.402 216.084 316.918 221.475 311.469 225.986 308.188 228.721 300.473 228.721 292.758 228.721 289.496 225.986 284.066 221.475 277.563 216.084 268.676 208.721 252.309 208.721 235.941 208.721 227.074 216.104 220.59 221.494 215.18 225.986 211.898 228.721 204.223 228.721 196.508 228.721 193.227 225.986 187.777 221.475 181.293 216.084 172.406 208.721 156.02 208.721L156.02 232.705C163.734 232.705 167.016 235.439 172.465 239.951 178.949 245.342 187.836 252.705 204.223 252.705 220.59 252.705 229.457 245.322 235.941 239.932 241.352 235.439 244.633 232.705 252.309 232.705 260.023 232.705 263.285 235.439 268.715 239.951 275.219 245.342 284.105 252.705 300.473 252.705 316.859 252.705 325.746 245.342 332.23 239.951 337.68 235.439 340.961 232.705 348.695 232.705 356.41 232.705 359.691 235.439 365.141 239.951 371.625 245.342 380.512 252.705 396.898 252.705 413.285 252.705 422.191 245.342 428.676 239.951 434.125 235.439 437.406 232.705 445.141 232.705 452.895 232.705 456.195 235.439 461.645 239.951 468.148 245.342 477.055 252.705 493.441 252.705 509.848 252.705 518.754 245.342 525.258 239.951 530.707 235.439 534.008 232.705 541.762 232.705L541.762 208.721C525.355 208.721 516.448 216.084 509.945 221.475 504.496 225.986 501.195 228.721 493.441 228.721z" class="color241f20 svgShape"></path></g></svg></g></svg>