<?xml version="1.0" encoding="UTF-8" standalone="no"?><!DOCTYPE svg PUBLIC "-//W3C//DTD SVG 1.1//EN" "http://www.w3.org/Graphics/SVG/1.1/DTD/svg11.dtd"><svg width="100%" height="100%" viewBox="0 0 288 34" version="1.1" xmlns="http://www.w3.org/2000/svg" xmlns:xlink="http://www.w3.org/1999/xlink" xml:space="preserve" xmlns:serif="http://www.serif.com/" style="fill-rule:evenodd;clip-rule:evenodd;stroke-linejoin:round;stroke-miterlimit:2;"><g><g><path d="M251.769,15.58c-5.784,0 -8.233,-2.041 -12.299,-5.407c-4.852,-4.022 -11.497,-9.516 -23.738,-9.516c-12.227,0 -18.872,5.494 -23.71,9.516c-4.066,3.366 -6.514,5.407 -12.285,5.407c-5.755,0 -8.204,-2.041 -12.27,-5.407c-4.837,-4.022 -11.468,-9.516 -23.695,-9.516c-12.226,0 -18.871,5.494 -23.709,9.516c-4.066,3.366 -6.514,5.407 -12.27,5.407c-5.756,0 -8.19,-2.041 -12.241,-5.407c-4.852,-4.022 -11.483,-9.516 -23.695,-9.516c-12.212,0 -18.828,5.509 -23.666,9.53c-4.036,3.352 -6.485,5.393 -12.211,5.393c-5.757,0 -8.205,-2.041 -12.271,-5.407c-4.838,-4.022 -11.468,-9.516 -23.694,-9.516l-0,17.895c5.755,0 8.204,2.04 12.27,5.406c4.837,4.023 11.468,9.516 23.695,9.516c12.211,-0 18.827,-5.508 23.665,-9.53c4.037,-3.352 6.485,-5.392 12.212,-5.392c5.756,0 8.19,2.04 12.241,5.406c4.853,4.023 11.483,9.516 23.695,9.516c12.226,-0 18.857,-5.493 23.694,-9.516c4.067,-3.366 6.515,-5.406 12.285,-5.406c5.756,0 8.204,2.04 12.271,5.406c4.838,4.023 11.468,9.516 23.694,9.516c12.227,-0 18.872,-5.493 23.71,-9.516c4.066,-3.366 6.514,-5.406 12.285,-5.406c5.785,0 8.247,2.04 12.314,5.406c4.852,4.023 11.497,9.516 23.723,9.516c12.242,-0 18.887,-5.493 23.739,-9.516c4.066,-3.366 6.706,-5.406 12.492,-5.406l0,-17.895c-12.242,0 -19.065,5.494 -23.917,9.516c-4.065,3.366 -6.528,5.407 -12.314,5.407Z" style="fill:#fff;fill-rule:nonzero;"/></g></g></svg>