<?xml version="1.0" encoding="UTF-8" standalone="no"?>
<!DOCTYPE svg PUBLIC "-//W3C//DTD SVG 1.1//EN" "http://www.w3.org/Graphics/SVG/1.1/DTD/svg11.dtd">
<svg width="100%" height="100%" viewBox="0 0 288 38" version="1.1" xmlns="http://www.w3.org/2000/svg" xmlns:xlink="http://www.w3.org/1999/xlink" xml:space="preserve" xmlns:serif="http://www.serif.com/" style="fill-rule:evenodd;clip-rule:evenodd;stroke-linejoin:round;stroke-miterlimit:2;">
    <g transform="matrix(1,0,0,1,0,-125)">
        <g transform="matrix(1,0,0,1,-374.207,-166.997)">
            <path d="M527.732,302.957C524.016,303.823 520.572,304.535 517.178,305.431C501.739,309.507 486.111,312.691 470.43,315.663C461.135,317.427 451.883,319.414 442.616,321.326C432.332,323.449 422.099,325.867 411.759,327.661C402.415,329.283 392.918,329.39 383.436,329.046C380.433,328.938 377.518,328.41 374.271,327.093C378.112,325.778 381.592,324.844 385.167,324.307C391.59,323.34 398.052,322.605 404.44,321.458C413.122,319.902 421.7,317.84 430.158,315.288C442.222,311.647 454.534,309.026 466.867,306.477C479.584,303.847 492.275,301.083 504.94,298.212C511.426,296.742 517.81,294.821 524.286,293.301C526.354,292.817 528.604,292.669 530.713,292.896C534.82,293.336 537.505,296.091 538.319,300.146C538.351,300.304 538.372,300.463 538.397,300.622C539.131,305.086 539.137,305.055 543.643,306.025C552.187,307.867 560.843,308.06 569.513,307.688C580.974,307.197 592.435,306.642 603.884,305.933C612.365,305.408 620.833,304.618 629.302,303.901C638.628,303.112 647.893,303.605 657.118,305.096C657.669,305.185 658.221,305.328 658.741,305.527C661.167,306.447 662.606,308.837 662.058,310.985C661.51,313.141 659.132,314.716 656.647,314.459C654.496,314.237 652.365,313.75 650.211,313.635C641.376,313.159 632.549,313.442 623.797,314.712C614.744,316.028 605.675,317.129 596.55,317.781C583.984,318.679 571.42,319.625 558.808,319.402C552.292,319.286 545.835,318.498 539.515,316.913C537.37,316.375 535.209,315.504 533.348,314.327C530.22,312.349 528.399,309.36 528.021,305.595C527.953,304.891 527.868,304.188 527.732,302.957Z" style="fill:rgb(245,199,72);fill-rule:nonzero;"/>
        </g>
    </g>
</svg>
