<svg id="SvgjsSvg1025" width="288" height="288" xmlns="http://www.w3.org/2000/svg" version="1.1" xmlns:xlink="http://www.w3.org/1999/xlink" xmlns:svgjs="http://svgjs.com/svgjs"><defs id="SvgjsDefs1026"></defs><g id="SvgjsG1027"><svg xmlns="http://www.w3.org/2000/svg" xmlns:svgjs="http://svgjs.com/svgjs" xmlns:xlink="http://www.w3.org/1999/xlink" viewBox="0 0 288 288" width="288" height="288"><svg xmlns="http://www.w3.org/2000/svg" viewBox="0 -960 960 960" width="288" height="288"><path fill="#3d146d" d="M647-440H200q-17 0-28.5-11.5T160-480q0-17 11.5-28.5T200-520h447L451-716q-12-12-11.5-28t12.5-28q12-11 28-11.5t28 11.5l264 264q6 6 8.5 13t2.5 15q0 8-2.5 15t-8.5 13L508-188q-11 11-27.5 11T452-188q-12-12-12-28.5t12-28.5l195-195Z" class="color000 svgShape colordaf1f3"></path></svg></svg></g></svg>