<svg id="SvgjsSvg1038" width="288" height="288" xmlns="http://www.w3.org/2000/svg" version="1.1" xmlns:xlink="http://www.w3.org/1999/xlink" xmlns:svgjs="http://svgjs.com/svgjs"><defs id="SvgjsDefs1039"></defs><g id="SvgjsG1040"><svg xmlns="http://www.w3.org/2000/svg" fill-rule="evenodd" stroke-linejoin="round" stroke-miterlimit="2" clip-rule="evenodd" viewBox="0 0 2280 281" width="288" height="288"><path fill-rule="nonzero" d="M1124.31,2516.41C1144.56,2510.39 1164.8,2504.31 1185.07,2498.37C1243.21,2481.32 1300.86,2462.21 1359.67,2447.96C1413.31,2434.95 1468.15,2426.85 1522.62,2417.49C1535.58,2415.26 1549.27,2415.49 1562.46,2416.59C1606.88,2420.29 1637.92,2455.71 1636.54,2500.15C1636.28,2508.66 1635.56,2517.18 1634.93,2527.66C1644.46,2527.66 1652.94,2528.41 1661.24,2527.51C1681.77,2525.33 1702.17,2521.5 1722.73,2520.02C1747.88,2518.21 1773.47,2515.18 1798.31,2517.9C1845.82,2523.12 1892.83,2519.93 1939.94,2515.64C2004.26,2509.78 2068.51,2503.06 2132.8,2496.76C2193.79,2490.78 2254.75,2484.34 2315.8,2479.14C2359.6,2475.41 2403.53,2472.97 2447.44,2470.71C2513.99,2467.3 2580.57,2464.66 2647.12,2461.41C2666.34,2460.48 2683.1,2465.16 2694.63,2481.27C2716.66,2512.05 2696.71,2553.26 2658.06,2556.08C2626.84,2558.37 2595.46,2558.45 2564.22,2560.44C2459.84,2567.12 2355.32,2572.48 2251.15,2581.64C2147.67,2590.74 2044.58,2604.21 1941.24,2614.97C1890.2,2620.29 1839.08,2623.21 1787.66,2617.21C1769.46,2615.09 1750.56,2618.18 1732.06,2619.77C1698.92,2622.62 1665.91,2627.13 1632.74,2629.01C1612.67,2630.14 1592.61,2625.68 1575.26,2614.82C1548.71,2598.19 1534.45,2573.41 1531.51,2542.26C1530.91,2535.77 1531.42,2529.16 1531.42,2520.41C1523.35,2520.94 1516.96,2520.86 1510.72,2521.84C1415.12,2536.93 1321.41,2559.57 1229.72,2590.82C1190.06,2604.34 1150.19,2618.21 1108.11,2622.14C1091.78,2623.66 1074.59,2624.04 1058.71,2620.65C1011.7,2610.64 986.739,2569.2 998.498,2522.39C1001.86,2509.02 1008.22,2496.41 1014.01,2481.33C998.39,2484.59 983.756,2487.82 969.056,2490.66C821.272,2519.12 673.506,2547.68 525.656,2575.75C508.714,2578.96 491.256,2579.61 473.989,2580.87C468.105,2581.29 461.914,2580.7 456.181,2579.29C435.806,2574.25 423.439,2558.37 424.114,2538.99C424.798,2519.6 438.314,2505.17 459.114,2501.27C522.581,2489.37 586.197,2478.21 649.439,2465.23C756.423,2443.28 863.456,2421.39 969.881,2396.96C1017.11,2386.1 1063.04,2369.4 1109.34,2354.71C1125.09,2349.7 1140.35,2347.56 1156.28,2352.91C1194.71,2365.8 1211.12,2404.62 1190.26,2439.5C1179.85,2456.88 1164.4,2471.38 1150.44,2486.46C1141.71,2495.89 1131.51,2503.96 1121.96,2512.63C1122.75,2513.88 1123.53,2515.15 1124.31,2516.41Z" transform="translate(-424 -2349)" fill="#f5c748" class="color000 svgShape"></path></svg></g></svg>