<?xml version="1.0" encoding="UTF-8" standalone="no"?>
<!DOCTYPE svg PUBLIC "-//W3C//DTD SVG 1.1//EN" "http://www.w3.org/Graphics/SVG/1.1/DTD/svg11.dtd">
<svg width="100%" height="100%" viewBox="0 0 24 24" version="1.1" xmlns="http://www.w3.org/2000/svg" xmlns:xlink="http://www.w3.org/1999/xlink" xml:space="preserve" xmlns:serif="http://www.serif.com/" style="fill-rule:evenodd;clip-rule:evenodd;stroke-linejoin:round;stroke-miterlimit:2;">
    <path d="M19.039,19.043L16.078,19.043L16.078,14.4C16.078,13.294 16.055,11.87 14.534,11.87C12.99,11.87 12.754,13.07 12.754,14.319L12.754,19.041L9.792,19.041L9.792,9.5L12.637,9.5L12.637,10.8L12.676,10.8C13.256,9.809 14.337,9.216 15.484,9.258C18.484,9.258 19.04,11.233 19.04,13.804L19.04,19.042L19.039,19.043ZM6.447,8.194C5.504,8.193 4.728,7.417 4.728,6.474C4.728,5.53 5.504,4.754 6.448,4.754C7.391,4.754 8.167,5.53 8.168,6.473C8.168,6.474 8.168,6.474 8.168,6.475C8.168,7.418 7.392,8.194 6.449,8.194C6.448,8.194 6.448,8.194 6.447,8.194ZM7.932,19.043L4.963,19.043L4.963,9.5L7.932,9.5L7.932,19.043ZM20.521,2L3.476,2C3.47,2 3.464,2 3.458,2C2.664,2 2.009,2.648 2,3.441L2,20.559C2.009,21.352 2.664,22 3.458,22C3.464,22 3.47,22 3.476,22L20.518,22C21.319,22.01 21.988,21.36 22,20.559L22,3.441C21.987,2.64 21.319,1.99 20.518,2L20.521,2Z" style="fill:white;fill-rule:nonzero;"/>
</svg>
