<svg id="SvgjsSvg1013" width="288" height="288" xmlns="http://www.w3.org/2000/svg" version="1.1" xmlns:xlink="http://www.w3.org/1999/xlink" xmlns:svgjs="http://svgjs.com/svgjs"><defs id="SvgjsDefs1014"></defs><g id="SvgjsG1015"><svg xmlns="http://www.w3.org/2000/svg" fill-rule="evenodd" stroke-linejoin="round" stroke-miterlimit="2" clip-rule="evenodd" viewBox="0 0 528 527" width="288" height="288"><path fill="#f5c748" fill-rule="nonzero" d="M552.727,207.853L552.938,268.956L564.709,208.996L553.352,269.035L576.258,212.388L553.744,269.192L586.957,217.903L554.1,269.421L596.418,225.344L554.404,269.713L604.301,234.441L554.65,270.057L610.32,244.865L554.826,270.44L614.256,256.24L554.926,270.852L615.969,268.154L554.945,271.273L615.396,280.178L554.885,271.691L612.559,291.876L554.746,272.091L607.559,302.825L554.535,272.456L600.576,312.63L554.26,272.775L591.865,320.937L553.928,273.036L581.738,327.444L553.551,273.23L570.564,331.918L553.146,273.349L558.744,334.195L552.727,273.389L546.708,334.195L552.305,273.349L534.889,331.918L551.9,273.23L523.714,327.444L551.523,273.036L513.588,320.937L551.193,272.775L504.876,312.63L550.916,272.456L497.895,302.825L550.705,272.091L492.894,291.876L550.566,271.691L490.056,280.178L550.506,271.273L489.483,268.154L550.527,270.852L491.196,256.24L550.625,270.44L495.133,244.865L550.803,270.057L501.151,234.441L551.047,269.713L509.034,225.344L551.352,269.421L518.495,217.903L551.707,269.192L529.194,212.388L552.1,269.035L540.744,208.996L552.514,268.956L552.727,207.853Z" transform="translate(-2039 -866) scale(4.16667)" class="color231f20 svgShape"></path></svg></g></svg>