<svg xmlns="http://www.w3.org/2000/svg" width="155" height="49" viewBox="0 0 155 49" fill="none">
  <path d="M16.7639 25.0066V24.7323L16.7422 25.0626C16.744 25.0484 16.7516 25.0302 16.7639 25.0066ZM36.9583 0.0146484H0V42.2565C0.96437 42.5661 1.91469 42.8617 2.8504 43.1425L2.97789 43.186C4.21946 43.5522 5.87393 43.9596 7.94184 44.4088C9.10096 44.6625 10.7554 45.014 12.9058 45.4632C13.1438 45.5191 13.3748 45.5691 13.6 45.6127V37.9983H33.7944V25.3216H13.6V12.6666H36.9583V0.0146484ZM75.2365 12.6884H74.1674C72.2831 12.7302 70.4889 13.0252 68.7847 13.5744L68.4069 13.7022C65.8226 14.6005 63.4693 16.1112 61.3482 18.2347C59.251 20.3576 57.7492 22.7277 56.8427 25.3434C56.5491 26.1876 56.3187 27.0736 56.1515 28.0014C55.9696 28.9993 55.8643 30.033 55.8357 31.1016V32.2619C55.8643 33.3434 55.9696 34.3771 56.1515 35.3626C56.3333 36.2905 56.5708 37.1688 56.8643 37.9983C57.269 39.1922 57.7989 40.3308 58.4539 41.414C59.237 42.708 60.2013 43.9378 61.3482 45.1046L61.8499 45.5691C65.0893 44.908 68.3642 44.0991 71.6761 43.1425L73.6873 42.5308C77.1079 41.4911 80.5092 40.5992 83.8912 39.8545L85.1895 39.5802C86.0281 39.3971 86.6913 39.2629 87.1791 39.1775C88.7861 38.8702 90.288 38.61 91.6845 38.398L92.4588 38.2921L92.5641 37.9983C92.8161 37.296 93.0191 36.5648 93.1717 35.8059C93.4091 34.6662 93.5413 33.4629 93.5682 32.1966V31.1422C93.5267 29.0899 93.1922 27.1566 92.5641 25.3434C91.6553 22.7277 90.1464 20.3576 88.037 18.2347C85.9422 16.1259 83.5965 14.6153 80.9999 13.7022C79.184 13.0681 77.2629 12.7302 75.2365 12.6884ZM74.3996 25.3434H75.0072C76.6266 25.414 78.0097 26.0327 79.1565 27.1996C80.315 28.3517 80.9297 29.744 80.9999 31.3765V31.9876C80.9297 33.6036 80.315 34.9882 79.1565 36.1427V36.1615C77.9541 37.3572 76.5283 37.9695 74.8803 37.9983H74.5452C72.8843 37.9695 71.4527 37.3507 70.2503 36.1427C69.5666 35.4521 69.0783 34.6921 68.7847 33.8626C68.5619 33.2303 68.4356 32.5557 68.4069 31.838V31.5013C68.4356 30.7836 68.5619 30.116 68.7847 29.4985C69.0783 28.6543 69.5666 27.8878 70.2503 27.1996C71.4094 26.0327 72.7925 25.414 74.3996 25.3434ZM52.6718 0.0146484H40.1034V41.414V48.0146C42.3795 47.9728 44.6562 47.861 46.9329 47.6779C47.8271 47.6072 48.819 47.5231 49.9073 47.4253C50.984 47.3129 51.9051 47.2005 52.6718 47.0886V0.0146484ZM155 12.6884H141.967L136.123 32.5775L129.836 12.6884H117.264L110.958 32.5775L105.114 12.6884H92.1027L100.274 37.4061C101.406 37.3083 102.453 37.2383 103.416 37.1971C104.689 37.1264 105.953 37.0834 107.209 37.0693L109.576 37.0469C110.303 37.0469 111.113 37.0617 112.006 37.0911L112.929 37.1129C113.319 37.1129 113.773 37.1264 114.29 37.1535C114.43 37.1676 114.639 37.1824 114.918 37.1971L116.366 37.2812C117.105 37.3231 117.943 37.379 118.879 37.4496C119.632 37.5203 120.457 37.6044 121.351 37.7022L123.551 30.7836L125.919 38.2921L127.26 38.504C129.831 38.9114 132.428 39.4253 135.054 40.0447L137.818 40.7187C140.276 41.3652 142.678 42.0681 145.025 42.8275L155 12.6884Z" fill="#ffffff"></path>
</svg>
