<svg width="3973" height="676" viewBox="0 0 3973 676" fill="none" xmlns="http://www.w3.org/2000/svg">
<path d="M2145.51 175.107H1965.16L1884.29 448.503L1797.29 175.107H1623.33L1536.07 448.503L1455.2 175.107H1275.15L1388.22 514.882C1403.89 513.541 1418.38 512.583 1431.7 512.007C1449.31 511.037 1466.81 510.453 1484.19 510.253L1516.95 509.953C1527.01 509.953 1538.21 510.153 1550.56 510.553L1563.34 510.854C1568.75 510.854 1575.02 511.037 1582.17 511.408C1584.11 511.607 1587.01 511.808 1590.87 512.007L1610.9 513.166C1621.13 513.737 1632.72 514.512 1645.67 515.482C1656.1 516.453 1667.51 517.612 1679.89 518.958L1710.33 423.849L1743.09 527.062L1761.66 529.974C1797.22 535.578 1833.17 542.641 1869.5 551.158L1907.75 560.42C1941.77 569.312 1975.01 578.974 2007.48 589.408L2145.51 175.107ZM729.512 0.890625H555.595V569.982V660.716C587.095 660.141 618.6 658.599 650.1 656.083C662.479 655.112 676.199 653.953 691.266 652.612C706.158 651.066 718.908 649.524 729.512 647.979V0.890625ZM1030.18 349.07H1038.59C1061 350.041 1080.14 358.545 1096 374.583C1112.04 390.42 1120.54 409.558 1121.51 431.995V440.403C1120.54 462.612 1112.04 481.649 1096 497.516V497.774C1079.36 514.212 1059.64 522.628 1036.83 523.028H1032.2C1009.21 522.628 989.404 514.124 972.766 497.516C963.304 488.024 956.545 477.578 952.483 466.17C949.396 457.482 947.654 448.203 947.254 438.345V433.711C947.654 423.849 949.396 414.674 952.483 406.183C956.545 394.578 963.304 384.045 972.766 374.583C988.804 358.545 1007.94 350.041 1030.18 349.07ZM1041.76 175.107H1026.97C1000.9 175.678 976.066 179.737 952.483 187.287L947.254 189.045C911.491 201.391 878.933 222.162 849.575 251.345C820.558 280.533 799.779 313.107 787.229 349.07C783.17 360.674 779.983 372.854 777.666 385.604C775.15 399.324 773.691 413.528 773.291 428.224V444.174C773.691 459.041 775.15 473.245 777.666 486.795C780.183 499.545 783.47 511.624 787.529 523.028C793.133 539.437 800.462 555.091 809.525 569.982C820.358 587.762 833.708 604.67 849.575 620.708L856.521 627.099C901.345 618.007 946.666 606.887 992.491 593.737L1020.32 585.333C1067.66 571.041 1114.72 558.778 1161.52 548.541L1179.49 544.77C1191.09 542.253 1200.27 540.408 1207.02 539.237C1229.25 535.007 1250.04 531.433 1269.36 528.516L1280.08 527.062L1281.54 523.028C1285.03 513.366 1287.83 503.32 1289.95 492.887C1293.23 477.22 1295.06 460.683 1295.43 443.274V428.783C1294.86 400.566 1290.23 373.995 1281.54 349.07C1268.96 313.107 1248.08 280.533 1218.89 251.345C1189.91 222.362 1157.45 201.591 1121.51 189.045C1096.39 180.324 1069.8 175.678 1041.76 175.107ZM512.07 0.890625H0.653809V581.558C14.0037 585.82 27.1538 589.878 40.0996 593.737L41.8579 594.336C59.0413 599.37 81.937 604.97 110.55 611.145C126.587 614.632 149.487 619.466 179.245 625.641C182.533 626.412 185.733 627.099 188.85 627.699V523.028H468.291V348.77H188.85V174.808H512.07V0.890625ZM232.629 344.437V340.666L232.329 345.208C232.358 345.016 232.458 344.757 232.629 344.437Z" fill="black"/>
<path d="M2393.19 176.075H2544.62V221.408H2442.3V262.966H2538.95V308.304H2442.3V353.637H2550.29V398.975H2393.19V176.075Z" fill="black"/>
<path d="M2572.82 160.962H2620.05V398.975H2572.82V160.962Z" fill="black"/>
<path d="M2747.02 305.154C2747.23 297.179 2744.6 290.358 2739.15 284.691C2733.69 279.024 2726.66 276.191 2718.06 276.191C2712.81 276.191 2708.19 277.029 2704.2 278.708C2700.21 280.391 2696.81 282.541 2693.97 285.162C2691.13 287.791 2688.94 290.829 2687.36 294.291C2685.79 297.758 2684.89 301.375 2684.69 305.154H2747.02ZM2787 372.524C2779.45 382.183 2769.89 389.637 2758.35 394.879C2746.81 400.125 2734.84 402.75 2722.46 402.75C2710.71 402.75 2699.63 400.862 2689.25 397.083C2678.86 393.308 2669.83 387.904 2662.17 380.871C2654.51 373.841 2648.48 365.396 2644.07 355.524C2639.66 345.662 2637.46 334.646 2637.46 322.47C2637.46 310.3 2639.66 299.279 2644.07 289.412C2648.48 279.55 2654.51 271.104 2662.17 264.07C2669.83 257.041 2678.86 251.633 2689.25 247.858C2699.63 244.079 2710.71 242.187 2722.46 242.187C2733.37 242.187 2743.29 244.079 2752.21 247.858C2761.13 251.633 2768.69 257.041 2774.88 264.07C2781.07 271.104 2785.85 279.55 2789.21 289.412C2792.56 299.279 2794.24 310.3 2794.24 322.47V337.266H2684.69C2686.57 346.295 2690.66 353.479 2696.96 358.833C2703.26 364.183 2711.02 366.862 2720.26 366.862C2728.02 366.862 2734.58 365.129 2739.94 361.666C2745.29 358.204 2749.96 353.746 2753.95 348.287L2787 372.524Z" fill="black"/>
<path d="M2811.9 245.966H2857.24V266.745H2857.87C2859.34 263.808 2861.44 260.87 2864.17 257.928C2866.89 254.995 2870.15 252.37 2873.92 250.058C2877.7 247.753 2882 245.862 2886.83 244.391C2891.66 242.928 2896.91 242.187 2902.57 242.187C2913.28 242.187 2922.77 244.391 2931.06 248.799C2939.35 253.208 2945.6 260.132 2949.8 269.578C2955.25 259.716 2961.87 252.687 2969.63 248.482C2977.39 244.291 2986.95 242.187 2998.28 242.187C3008.56 242.187 3017.22 243.92 3024.26 247.382C3031.29 250.845 3036.85 255.57 3040.94 261.549C3045.04 267.533 3047.97 274.566 3049.76 282.645C3051.54 290.724 3052.43 299.382 3052.43 308.616V398.974H3005.21V309.874C3005.21 302.741 3003.68 296.604 3000.64 291.458C2997.6 286.32 2992.19 283.745 2984.43 283.745C2978.97 283.745 2974.4 284.641 2970.74 286.42C2967.06 288.208 2964.12 290.67 2961.92 293.82C2959.71 296.97 2958.14 300.645 2957.2 304.836C2956.25 309.041 2955.78 313.449 2955.78 318.062V398.974H2908.56V318.062C2908.56 315.336 2908.45 311.979 2908.24 307.987C2908.03 304.003 2907.3 300.224 2906.04 296.653C2904.78 293.086 2902.73 290.041 2899.9 287.524C2897.06 285.003 2892.92 283.745 2887.46 283.745C2881.37 283.745 2876.44 284.849 2872.67 287.049C2868.89 289.253 2866 292.195 2864.01 295.866C2862.01 299.541 2860.7 303.691 2860.07 308.303C2859.44 312.92 2859.13 317.749 2859.13 322.787V398.974H2811.9V245.966Z" fill="black"/>
<path d="M3178.11 305.154C3178.32 297.179 3175.69 290.358 3170.24 284.691C3164.78 279.024 3157.75 276.191 3149.15 276.191C3143.9 276.191 3139.28 277.029 3135.29 278.708C3131.31 280.391 3127.9 282.541 3125.06 285.162C3122.23 287.791 3120.03 290.829 3118.45 294.291C3116.88 297.758 3115.98 301.375 3115.78 305.154H3178.11ZM3218.09 372.524C3210.54 382.183 3200.98 389.637 3189.44 394.879C3177.9 400.125 3165.93 402.75 3153.55 402.75C3141.8 402.75 3130.73 400.862 3120.34 397.083C3109.95 393.308 3100.92 387.904 3093.26 380.871C3085.6 373.841 3079.57 365.396 3075.16 355.524C3070.76 345.662 3068.55 334.646 3068.55 322.47C3068.55 310.3 3070.76 299.279 3075.16 289.412C3079.57 279.55 3085.6 271.104 3093.26 264.07C3100.92 257.041 3109.95 251.633 3120.34 247.858C3130.73 244.079 3141.8 242.187 3153.55 242.187C3164.46 242.187 3174.38 244.079 3183.31 247.858C3192.22 251.633 3199.78 257.041 3205.97 264.07C3212.16 271.104 3216.94 279.55 3220.3 289.412C3223.65 299.279 3225.33 310.3 3225.33 322.47V337.266H3115.78C3117.66 346.295 3121.76 353.479 3128.05 358.833C3134.35 364.183 3142.11 366.862 3151.35 366.862C3159.11 366.862 3165.68 365.129 3171.03 361.666C3176.38 358.204 3181.05 353.746 3185.04 348.287L3218.09 372.524Z" fill="black"/>
<path d="M3242.99 245.966H3288.33V266.745H3288.96C3290.42 263.808 3292.52 260.87 3295.25 257.928C3297.98 254.995 3301.24 252.37 3305.01 250.058C3308.79 247.753 3313.09 245.862 3317.92 244.391C3322.75 242.928 3328 242.187 3333.66 242.187C3345.62 242.187 3355.28 244.028 3362.62 247.699C3369.97 251.37 3375.69 256.466 3379.79 262.966C3383.88 269.474 3386.66 277.132 3388.13 285.949C3389.6 294.766 3390.33 304.316 3390.33 314.599V398.974H3343.11V324.045C3343.11 319.637 3342.95 315.07 3342.64 310.349C3342.32 305.624 3341.37 301.27 3339.8 297.283C3338.23 293.299 3335.81 290.041 3332.56 287.524C3329.3 285.003 3324.64 283.745 3318.55 283.745C3312.46 283.745 3307.53 284.849 3303.75 287.049C3299.98 289.253 3297.09 292.195 3295.1 295.866C3293.1 299.541 3291.79 303.691 3291.16 308.303C3290.53 312.92 3290.22 317.749 3290.22 322.787V398.974H3242.99V245.966Z" fill="black"/>
<path d="M3515.54 283.745H3473.98V334.749C3473.98 338.949 3474.19 342.774 3474.61 346.24C3475.03 349.703 3475.97 352.695 3477.44 355.211C3478.91 357.728 3481.17 359.674 3484.21 361.036C3487.25 362.403 3491.3 363.082 3496.33 363.082C3498.85 363.082 3502.16 362.824 3506.25 362.294C3510.34 361.774 3513.44 360.565 3515.54 358.674V398.028C3510.29 399.916 3504.83 401.178 3499.17 401.807C3493.5 402.436 3487.93 402.753 3482.48 402.753C3474.5 402.753 3467.16 401.907 3460.44 400.232C3453.73 398.553 3447.85 395.878 3442.81 392.203C3437.78 388.532 3433.84 383.757 3431 377.878C3428.17 372.007 3426.75 364.87 3426.75 356.47V283.745H3396.53V245.965H3426.75V200.632H3473.98V245.965H3515.54V283.745Z" fill="black"/>
<path d="M3614.33 331.914C3610.76 331.914 3606.3 332.072 3600.95 332.389C3595.6 332.701 3590.46 333.597 3585.52 335.064C3580.59 336.535 3576.39 338.739 3572.93 341.672C3569.47 344.614 3567.74 348.709 3567.74 353.956C3567.74 359.618 3570.15 363.822 3574.98 366.547C3579.8 369.276 3584.84 370.639 3590.09 370.639C3594.71 370.639 3599.17 370.01 3603.47 368.751C3607.77 367.493 3611.6 365.709 3614.96 363.397C3618.32 361.089 3620.99 358.151 3622.99 354.581C3624.98 351.014 3625.98 346.822 3625.98 341.989V331.914H3614.33ZM3625.98 379.768H3625.35C3620.1 387.956 3613.12 393.831 3604.42 397.397C3595.7 400.964 3586.52 402.751 3576.87 402.751C3569.73 402.751 3562.86 401.751 3556.25 399.76C3549.64 397.768 3543.81 394.776 3538.77 390.789C3533.74 386.801 3529.74 381.868 3526.81 375.993C3523.87 370.118 3522.4 363.293 3522.4 355.526C3522.4 346.709 3524.02 339.264 3527.28 333.172C3530.53 327.089 3534.94 322.051 3540.5 318.064C3546.06 314.076 3552.42 310.98 3559.55 308.776C3566.68 306.568 3574.08 304.947 3581.75 303.893C3589.41 302.847 3597.06 302.218 3604.73 302.005C3612.39 301.797 3619.47 301.693 3625.98 301.693C3625.98 293.297 3622.99 286.635 3617.01 281.701C3611.03 276.772 3603.94 274.301 3595.76 274.301C3587.99 274.301 3580.91 275.926 3574.51 279.18C3568.1 282.435 3562.39 286.893 3557.35 292.56L3532.16 266.743C3540.98 258.56 3551.26 252.418 3563.02 248.326C3574.77 244.234 3586.94 242.189 3599.54 242.189C3613.39 242.189 3624.77 243.918 3633.69 247.38C3642.61 250.847 3649.75 255.939 3655.1 262.651C3660.45 269.372 3664.18 277.605 3666.28 287.368C3668.37 297.126 3669.43 308.41 3669.43 321.209V398.972H3625.98V379.768Z" fill="black"/>
<path d="M3690.96 245.966H3738.18V270.524H3738.81C3743.85 261.078 3749.83 253.995 3756.76 249.27C3763.68 244.549 3772.39 242.187 3782.88 242.187C3785.61 242.187 3788.34 242.295 3791.07 242.503C3793.8 242.716 3796.32 243.132 3798.63 243.762V286.895C3795.27 285.845 3791.96 285.058 3788.71 284.533C3785.46 284.012 3782.04 283.745 3778.48 283.745C3769.45 283.745 3762.31 285.003 3757.07 287.524C3751.82 290.041 3747.78 293.558 3744.95 298.07C3742.11 302.586 3740.28 307.987 3739.44 314.283C3738.6 320.583 3738.18 327.507 3738.18 335.062V398.974H3690.96V245.966Z" fill="black"/>
<path d="M3903.34 423.845C3900.19 432.028 3897.15 439.27 3894.21 445.565C3891.27 451.865 3887.54 457.161 3883.03 461.465C3878.51 465.766 3872.8 469.024 3865.87 471.228C3858.95 473.428 3849.82 474.532 3838.48 474.532C3826.31 474.532 3814.56 472.641 3803.22 468.865L3809.52 430.141C3816.65 433.291 3824 434.865 3831.56 434.865C3836.8 434.865 3841.11 434.282 3844.47 433.132C3847.82 431.978 3850.61 430.299 3852.81 428.095C3855.01 425.891 3856.85 423.215 3858.32 420.065C3859.79 416.916 3861.36 413.245 3863.04 409.049L3866.51 400.232L3799.44 245.965H3850.45L3889.8 347.024H3890.43L3924.12 245.965H3972.6L3903.34 423.845Z" fill="black"/>
<path d="M2501.49 501.642C2497.5 496.604 2492.09 492.879 2485.28 490.463C2478.45 488.055 2472 486.846 2465.91 486.846C2462.34 486.846 2458.67 487.267 2454.89 488.104C2451.12 488.946 2447.55 490.259 2444.19 492.038C2440.83 493.825 2438.1 496.184 2436 499.125C2433.9 502.067 2432.85 505.634 2432.85 509.825C2432.85 516.546 2435.38 521.688 2440.41 525.254C2445.45 528.825 2451.8 531.863 2459.46 534.384C2467.12 536.9 2475.36 539.421 2484.17 541.938C2492.99 544.459 2501.23 548.03 2508.89 552.642C2516.55 557.263 2522.9 563.455 2527.93 571.217C2532.97 578.984 2535.49 589.375 2535.49 602.388C2535.49 614.771 2533.18 625.58 2528.56 634.813C2523.95 644.05 2517.7 651.713 2509.83 657.796C2501.96 663.884 2492.83 668.396 2482.44 671.334C2472.05 674.271 2461.08 675.742 2449.54 675.742C2435.06 675.742 2421.63 673.538 2409.24 669.129C2396.86 664.721 2385.32 657.588 2374.61 647.721L2409.56 609.313C2414.6 616.034 2420.94 621.226 2428.6 624.896C2436.27 628.571 2444.19 630.405 2452.38 630.405C2456.36 630.405 2460.4 629.934 2464.5 628.988C2468.59 628.046 2472.26 626.629 2475.52 624.738C2478.77 622.851 2481.39 620.442 2483.38 617.5C2485.38 614.563 2486.38 611.101 2486.38 607.109C2486.38 600.396 2483.8 595.096 2478.66 591.209C2473.52 587.33 2467.06 584.021 2459.3 581.292C2451.53 578.567 2443.14 575.838 2434.12 573.109C2425.09 570.384 2416.69 566.709 2408.93 562.088C2401.16 557.476 2394.71 551.384 2389.57 543.83C2384.42 536.275 2381.85 526.305 2381.85 513.921C2381.85 501.955 2384.21 491.463 2388.94 482.438C2393.66 473.417 2399.95 465.859 2407.83 459.771C2415.7 453.684 2424.77 449.121 2435.06 446.075C2445.34 443.034 2455.94 441.509 2466.85 441.509C2479.45 441.509 2491.62 443.296 2503.38 446.863C2515.13 450.43 2525.73 456.417 2535.18 464.805L2501.49 501.642Z" fill="black"/>
<path d="M2654.21 566.496C2651.9 563.142 2648.65 560.354 2644.45 558.155C2640.25 555.95 2635.74 554.846 2630.91 554.846C2618.95 554.846 2609.66 558.421 2603.05 565.55C2596.44 572.688 2593.13 582.034 2593.13 593.571C2593.13 605.117 2596.44 614.459 2603.05 621.592C2609.66 628.729 2618.95 632.296 2630.91 632.296C2636.15 632.296 2640.67 631.146 2644.45 628.83C2648.22 626.525 2651.48 623.796 2654.21 620.646L2685.37 653.388C2678.03 660.942 2669.37 666.246 2659.4 669.288C2649.43 672.33 2639.93 673.851 2630.91 673.851C2619.15 673.851 2608.09 671.963 2597.7 668.188C2587.31 664.409 2578.28 659.009 2570.62 651.971C2562.96 644.942 2556.92 636.496 2552.52 626.629C2548.11 616.763 2545.91 605.746 2545.91 593.571C2545.91 581.4 2548.11 570.384 2552.52 560.513C2556.92 550.65 2562.96 542.205 2570.62 535.171C2578.28 528.142 2587.31 522.734 2597.7 518.959C2608.09 515.18 2619.15 513.288 2630.91 513.288C2639.93 513.288 2649.43 514.817 2659.4 517.854C2669.37 520.9 2678.03 526.2 2685.37 533.754L2654.21 566.496Z" fill="black"/>
<path d="M2739.93 432.064V537.848H2740.56C2741.61 534.91 2743.4 531.973 2745.92 529.031C2748.43 526.093 2751.48 523.473 2755.05 521.16C2758.61 518.856 2762.81 516.964 2767.64 515.493C2772.47 514.027 2777.71 513.289 2783.38 513.289C2795.34 513.289 2805 515.131 2812.34 518.797C2819.69 522.473 2825.41 527.564 2829.5 534.068C2833.6 540.577 2836.38 548.235 2837.85 557.052C2839.31 565.868 2840.05 575.418 2840.05 585.702V670.077H2792.83V595.147C2792.83 590.739 2792.67 586.172 2792.35 581.452C2792.04 576.727 2791.09 572.373 2789.52 568.385C2787.95 564.402 2785.53 561.144 2782.28 558.626C2779.02 556.106 2774.35 554.848 2768.27 554.848C2762.18 554.848 2757.25 555.947 2753.47 558.152C2749.69 560.356 2746.81 563.297 2744.81 566.968C2742.82 570.644 2741.51 574.789 2740.88 579.406C2740.25 584.022 2739.93 588.848 2739.93 593.885V670.077H2692.71V432.064H2739.93Z" fill="black"/>
<path d="M2902.79 593.571C2902.79 605.117 2906.1 614.459 2912.71 621.592C2919.32 628.729 2928.61 632.296 2940.57 632.296C2952.54 632.296 2961.82 628.729 2968.44 621.592C2975.05 614.459 2978.35 605.117 2978.35 593.571C2978.35 582.03 2975.05 572.688 2968.44 565.55C2961.82 558.417 2952.54 554.846 2940.57 554.846C2928.61 554.846 2919.32 558.417 2912.71 565.55C2906.1 572.688 2902.79 582.03 2902.79 593.571ZM2855.57 593.571C2855.57 581.4 2857.77 570.384 2862.18 560.513C2866.59 550.65 2872.62 542.205 2880.29 535.171C2887.94 528.142 2896.97 522.734 2907.36 518.959C2917.75 515.18 2928.81 513.288 2940.57 513.288C2952.32 513.288 2963.4 515.18 2973.79 518.959C2984.18 522.734 2993.2 528.142 3000.87 535.171C3008.52 542.205 3014.56 550.65 3018.96 560.513C3023.37 570.384 3025.58 581.4 3025.58 593.571C3025.58 605.746 3023.37 616.763 3018.96 626.629C3014.56 636.496 3008.52 644.942 3000.87 651.971C2993.2 659.009 2984.18 664.409 2973.79 668.188C2963.4 671.963 2952.32 673.851 2940.57 673.851C2928.81 673.851 2917.75 671.963 2907.36 668.188C2896.97 664.409 2887.94 659.009 2880.29 651.971C2872.62 644.942 2866.59 636.496 2862.18 626.629C2857.77 616.763 2855.57 605.746 2855.57 593.571Z" fill="black"/>
<path d="M3081.58 593.571C3081.58 605.117 3084.88 614.459 3091.5 621.592C3098.11 628.729 3107.4 632.296 3119.36 632.296C3131.32 632.296 3140.61 628.729 3147.22 621.592C3153.83 614.459 3157.14 605.117 3157.14 593.571C3157.14 582.03 3153.83 572.688 3147.22 565.55C3140.61 558.417 3131.32 554.846 3119.36 554.846C3107.4 554.846 3098.11 558.417 3091.5 565.55C3084.88 572.688 3081.58 582.03 3081.58 593.571ZM3034.36 593.571C3034.36 581.4 3036.56 570.384 3040.97 560.513C3045.38 550.65 3051.41 542.205 3059.07 535.171C3066.73 528.142 3075.76 522.734 3086.15 518.959C3096.53 515.18 3107.6 513.288 3119.36 513.288C3131.11 513.288 3142.18 515.18 3152.58 518.959C3162.96 522.734 3171.98 528.142 3179.65 535.171C3187.31 542.205 3193.34 550.65 3197.75 560.513C3202.16 570.384 3204.36 581.4 3204.36 593.571C3204.36 605.746 3202.16 616.763 3197.75 626.629C3193.34 636.496 3187.31 644.942 3179.65 651.971C3171.98 659.009 3162.96 664.409 3152.58 668.188C3142.18 671.963 3131.11 673.851 3119.36 673.851C3107.6 673.851 3096.53 671.963 3086.15 668.188C3075.76 664.409 3066.73 659.009 3059.07 651.971C3051.41 644.942 3045.38 636.496 3040.97 626.629C3036.56 616.763 3034.36 605.746 3034.36 593.571Z" fill="black"/>
<path d="M3221.33 432.062H3268.55V670.075H3221.33V432.062Z" fill="black"/>
<path d="M3378.52 562.089C3371.6 553.485 3362.46 549.181 3351.13 549.181C3347.14 549.181 3343.26 550.123 3339.48 552.015C3335.7 553.902 3333.82 557.161 3333.82 561.773C3333.82 565.552 3335.75 568.335 3339.64 570.119C3343.52 571.902 3348.45 573.477 3354.44 574.839C3360.42 576.206 3366.82 577.673 3373.64 579.248C3380.46 580.823 3386.86 583.29 3392.85 586.648C3398.83 590.006 3403.76 594.569 3407.64 600.339C3411.52 606.115 3413.47 613.827 3413.47 623.481C3413.47 633.348 3411.31 641.481 3407.01 647.877C3402.71 654.286 3397.2 659.423 3390.49 663.306C3383.77 667.194 3376.21 669.915 3367.82 671.49C3359.42 673.064 3351.13 673.852 3342.95 673.852C3332.24 673.852 3321.43 672.331 3310.52 669.29C3299.6 666.248 3290.37 660.844 3282.81 653.073L3311.46 621.277C3315.87 626.735 3320.75 630.877 3326.1 633.71C3331.45 636.548 3337.7 637.96 3344.84 637.96C3350.29 637.96 3355.22 637.177 3359.63 635.602C3364.04 634.027 3366.24 631.144 3366.24 626.944C3366.24 622.956 3364.3 619.969 3360.42 617.973C3356.53 615.981 3351.6 614.302 3345.62 612.936C3339.64 611.569 3333.23 610.098 3326.42 608.527C3319.59 606.952 3313.2 604.589 3307.21 601.444C3301.23 598.294 3296.3 593.839 3292.42 588.061C3288.53 582.294 3286.59 574.581 3286.59 564.923C3286.59 555.902 3288.42 548.131 3292.1 541.623C3295.77 535.123 3300.6 529.769 3306.58 525.569C3312.56 521.373 3319.44 518.277 3327.2 516.281C3334.97 514.29 3342.84 513.29 3350.82 513.29C3360.89 513.29 3371.07 514.76 3381.35 517.698C3391.63 520.64 3400.35 525.885 3407.49 533.439L3378.52 562.089Z" fill="black"/>
</svg>
