<?xml version="1.0" encoding="UTF-8"?>
<!-- Generated by Pixelmator Pro 3.6.17 -->
<svg width="1785" height="2218" viewBox="0 0 1785 2218" xmlns="http://www.w3.org/2000/svg">
    <path id="Path" fill="#ffffff" stroke="none" d="M 227.297119 425.537598 L 236.451172 458.204102 L 228.459473 461.645752 C 219.99707 465.033447 213.447021 467.949951 208.817871 470.395752 C 204.188721 472.845947 198.917969 476.454102 193.009521 481.225098 C 183.626221 488.80835 177.297119 498.220947 174.034668 509.470947 C 170.771973 520.725098 170.942871 532.93335 174.547119 546.108398 C 178.146973 559.283447 185.213867 572.383301 195.74292 585.420898 C 205.151367 597.06665 215.609619 606.204102 227.142822 612.829102 C 238.667969 619.462402 250.276367 622.725098 261.963867 622.616699 C 273.655518 622.508301 284.359619 618.524902 294.097168 610.666748 C 306.963867 600.279053 317.734619 587.125 326.422119 571.204102 L 359.409668 585.920898 C 355.609619 594.733398 349.817871 604.008301 342.034668 613.737549 C 334.24292 623.475098 326.521973 631.43335 318.876221 637.608398 C 300.968018 652.06665 282.447021 660.425049 263.30127 662.675049 C 244.155518 664.929199 225.788818 661.737549 208.197021 653.112549 C 190.605469 644.487549 174.797119 631.487549 160.755371 614.104248 C 146.159668 596.029053 136.692871 577.108398 132.359619 557.341553 C 128.034668 537.579102 129.146973 518.520752 135.709473 500.145752 C 142.267822 481.787598 154.067871 465.725098 171.101318 451.962402 C 177.359619 446.908447 185.780518 441.69165 196.36377 436.300049 C 206.942871 430.920898 217.259521 427.329102 227.297119 425.537598"/>
    <path id="path1" fill="#ffffff" stroke="none" d="M 383.530762 528.615723 C 385.959961 532.890869 389.755859 535.624268 394.918213 536.799072 C 400.080811 537.982422 405.289063 537.078369 410.534912 534.103271 C 421.805908 527.71167 429.555908 517.14917 433.789063 502.419922 L 421.551758 480.849121 L 392.985107 497.053223 C 386.76001 500.578369 382.864258 505.361572 381.280762 511.39917 C 379.70166 517.440918 380.44751 523.178223 383.530762 528.615723 M 335.435059 478.45752 L 307.368408 452.761719 C 310.547607 446.594971 316.930908 439.053223 326.522461 430.14917 C 336.110107 421.240723 344.205811 414.915771 350.814209 411.165771 C 362.080811 404.77417 373.651611 401.165771 385.51416 400.34082 C 397.380859 399.52417 408.343262 401.52417 418.397461 406.349121 C 428.459961 411.178223 436.297607 418.540771 441.918213 428.453369 L 494.664063 521.436768 L 469.88916 535.495117 L 454.880859 523.974121 C 450.080811 543.140869 441.168213 556.411621 428.147461 563.794922 C 411.239258 573.386719 396.172607 576.482422 382.935059 573.065918 C 369.70166 569.665771 359.118408 560.96167 351.180908 546.969971 C 343.022461 532.59082 341.564209 518.71167 346.818359 505.324219 C 352.068359 491.945068 362.860107 480.620117 379.185059 471.361572 L 406.876709 455.65332 C 402.605713 448.578369 397.339111 444.174072 391.097412 442.445068 C 384.855713 440.728271 378.235107 441.844971 371.239258 445.811768 C 364.82666 449.449219 358.255859 454.39917 351.530762 460.65332 C 344.805908 466.911621 339.435059 472.849121 335.435059 478.45752"/>
    <path id="path2" fill="#ffffff" stroke="none" d="M 695.866211 287.88501 C 706.653809 294.88916 715.032959 307.751709 720.999512 326.480713 L 753.945313 429.943359 L 712.432861 443.164063 L 682.128662 348.005859 C 678.941162 338.001709 674.987061 330.935059 670.278809 326.805908 C 665.562012 322.685059 659.903809 321.668213 653.307861 323.768311 C 646.92041 325.805908 641.532959 329.164063 637.16626 333.834961 C 632.79541 338.51416 627.407959 345.155762 620.999512 353.755859 L 622.324463 357.909912 L 655.274658 461.368408 L 613.761963 474.589111 L 583.458008 379.430908 C 580.270508 369.426758 576.316162 362.360107 571.60376 358.230713 C 566.891357 354.105713 561.23291 353.093262 554.636963 355.19751 C 548.249512 357.230713 542.866211 360.584961 538.495361 365.255859 C 534.124512 369.939209 528.657959 376.714111 522.112061 385.601563 L 556.282959 492.893311 L 514.766357 506.114258 L 465.449707 351.239258 L 492.591309 342.597412 L 504.903809 356.964111 C 512.312012 347.101563 520.520508 338.626709 529.516357 331.539063 C 538.512207 324.455811 546.845459 319.689209 554.512207 317.247559 C 575.583008 310.539063 592.083008 313.022461 604.011963 324.69751 C 611.491211 315.051758 619.632813 306.768311 628.458008 299.860107 C 637.274658 292.94751 645.516357 288.26416 653.178711 285.82666 C 670.849609 280.20166 685.074463 280.88916 695.866211 287.88501"/>
    <path id="path3" fill="#ffffff" stroke="none" d="M 877.515137 374.620117 C 883.585938 364.978271 885.969238 353.036621 884.665039 338.794922 C 883.356445 324.561768 878.915039 313.357422 871.327393 305.186768 C 863.727539 297.02002 853.92749 293.490723 841.910889 294.58667 C 832.573242 295.445068 823.29834 299.544922 814.098389 306.89502 L 821.165039 383.986572 C 830.852539 389.382568 840.706787 391.620117 850.719238 390.699219 C 862.506592 389.624268 871.439941 384.261719 877.515137 374.620117 M 901.852539 274.794922 C 917.823242 288.699219 927.002441 308.665771 929.385742 334.699219 C 930.931641 351.611572 929.015137 366.820068 923.635742 380.320068 C 918.252441 393.828369 909.660645 404.71167 897.856445 412.969971 C 886.043945 421.228271 871.573242 426.14917 854.444092 427.71582 C 847.769287 428.328369 840.631592 427.52002 833.023438 425.303223 C 825.419189 423.08667 818.290039 420.036621 811.656738 416.15332 L 804.019287 428.294922 L 781.994141 430.315918 L 760.748291 198.374268 L 803.460938 190.757568 L 810.494141 267.511719 C 819.831787 261.728271 829.727539 258.349121 840.189941 257.390869 C 865.327393 255.09082 885.885742 260.890869 901.852539 274.794922"/>
    <path id="path4" fill="#ffffff" stroke="none" d="M 999.462891 420.921143 L 955.95459 418.692139 L 964.279785 256.367188 L 987.033691 257.533691 L 1000.038086 285.383789 C 1008.200195 278.867188 1017.663086 273.087891 1028.441895 268.050537 C 1039.212891 263.012939 1048.621094 260.692139 1056.650391 261.108643 L 1063.566895 296.358643 C 1056.20459 295.979492 1046.971191 298.192139 1035.875488 302.992188 C 1024.775391 307.791992 1014.333984 314.08374 1004.541992 321.854492 Z"/>
    <path id="path5" fill="#ffffff" stroke="none" d="M 1121.382813 246.58252 C 1114.749512 245.615723 1109.449707 242.469971 1105.487305 237.14917 C 1101.520508 231.828369 1100.041016 225.745117 1101.041016 218.890869 C 1102.037109 212.036621 1105.199707 206.628418 1110.520508 202.661621 C 1115.841309 198.699219 1121.816406 197.199219 1128.453613 198.165771 C 1135.303711 199.165771 1140.762207 202.33667 1144.841309 207.674072 C 1148.912109 213.007568 1150.458008 219.107422 1149.453613 225.95752 C 1148.458008 232.811768 1145.241211 238.21167 1139.808105 242.157471 C 1134.374512 246.107422 1128.23291 247.58252 1121.382813 246.58252 M 1073.336914 427.195068 L 1096.816406 266.365723 L 1139.928711 272.657471 L 1116.445313 433.490723 Z"/>
    <path id="path6" fill="#ffffff" stroke="none" d="M 1202.311035 403.546631 C 1206.532227 413.871582 1214.461426 420.629883 1226.090332 423.838379 C 1231.69043 425.379883 1237.419434 425.804932 1243.294434 425.109131 C 1249.161133 424.41333 1255.603027 422.713379 1262.606934 420.004883 L 1281.052734 353.129883 C 1276.757324 346.85083 1272.31543 341.97168 1267.707031 338.500732 C 1263.103027 335.030029 1257.786133 332.459229 1251.75293 330.796631 C 1240.336426 327.646729 1230.090332 329.513428 1221.007324 336.392578 C 1211.927734 343.275879 1205.481934 353.613281 1201.682129 367.392578 C 1197.87793 381.175781 1198.086426 393.22998 1202.311035 403.546631 M 1355.457031 248.500732 L 1292.540527 476.584229 L 1270.57373 470.525879 L 1264.802734 453.634277 C 1247.69043 461.896729 1230.944824 463.767578 1214.582031 459.250732 C 1190.244629 452.53833 1173.057129 439.863281 1163.019531 421.217529 C 1152.978027 402.575928 1151.44043 380.650879 1158.390625 355.450928 C 1162.902832 339.084229 1170.061035 325.525879 1179.861328 314.78833 C 1189.661133 304.054932 1201.536133 296.900879 1215.50293 293.334229 C 1229.465332 289.771729 1244.740234 290.267578 1261.32373 294.84668 C 1266.490234 296.275879 1271.731934 298.705078 1277.044434 302.138428 C 1282.353027 305.575928 1287.25293 309.646729 1291.748535 314.363281 L 1312.152832 240.384277 Z"/>
    <path id="path7" fill="#ffffff" stroke="none" d="M 1418.807129 492.727051 C 1424.707031 493.056152 1431.344727 492.489502 1438.703125 491.039551 L 1468.419434 428.352051 C 1465.269531 421.422852 1461.736328 415.852051 1457.798828 411.635498 C 1453.865234 407.418701 1449.069824 403.96875 1443.415527 401.289551 C 1432.711426 396.21875 1422.294434 396.2854 1412.165527 401.497803 C 1402.032227 406.706299 1393.894531 415.7771 1387.777832 428.697998 C 1381.648926 441.618652 1379.777832 453.522949 1382.157227 464.414551 C 1384.532227 475.314697 1391.173828 483.34375 1402.078125 488.510498 C 1407.328125 490.993652 1412.894531 492.4021 1418.807129 492.727051 M 1528.044434 405.056152 L 1455.123535 558.897949 C 1445.561035 579.081299 1431.144531 591.227051 1411.898926 595.331299 C 1392.644531 599.431152 1371.106934 595.84375 1347.286133 584.552002 C 1339.811035 581.010498 1330.461426 574.6604 1319.223633 565.506348 C 1307.990234 556.34375 1299.986328 547.672852 1295.219727 539.477051 L 1320.231934 517.210449 C 1327.219727 525.960449 1333.957031 533.114502 1340.469727 538.672852 C 1346.986328 544.227051 1353.927734 548.881348 1361.302734 552.627197 C 1373.307129 558.068848 1384.236328 559.6604 1394.082031 557.40625 C 1403.927734 555.147949 1411.103027 549.28125 1415.594727 539.789551 L 1421.486328 527.377197 C 1408.423828 528.84375 1396.140625 526.860352 1384.632324 521.40625 C 1361.81543 510.59375 1347.07373 495.139648 1340.411133 475.039551 C 1333.736328 454.947998 1336.00293 433.085449 1347.19873 409.460449 C 1354.469727 394.118652 1363.856934 382.006348 1375.365234 373.114502 C 1386.865234 364.231201 1399.798828 359.235352 1414.177734 358.135498 C 1428.540527 357.0354 1443.498535 360.168701 1459.044434 367.5354 C 1465.711426 370.689697 1472.057129 375.685303 1478.098633 382.497803 C 1484.13623 389.318848 1488.882324 396.635498 1492.348633 404.460449 L 1507.44873 395.297852 Z"/>
    <path id="path8" fill="#ffffff" stroke="none" d="M 1569.677734 508.346191 L 1625.44043 547.312988 C 1629.748535 537.246338 1631.111328 528.379639 1629.507324 520.721191 C 1627.911133 513.062988 1623.444824 506.671143 1616.123535 501.554688 C 1608.798828 496.433838 1601.098633 494.39209 1593.015625 495.421143 C 1584.932129 496.45874 1577.152832 500.762939 1569.677734 508.346191 M 1642.532227 594.825439 L 1552.703125 532.050537 C 1548.00293 542.666992 1546.998535 552.596191 1549.677734 561.82959 C 1552.356934 571.062988 1560.015625 580.087891 1572.648926 588.921143 C 1579.978027 594.037842 1587.269531 597.64209 1594.544434 599.725342 C 1601.807129 601.804688 1610.173828 603.287842 1619.640625 604.179688 L 1612.032227 637.296143 C 1601.540527 637.871338 1591.369629 636.825439 1581.515625 634.162842 C 1571.657227 631.496338 1561.32373 626.387939 1550.519531 618.837891 C 1525.244629 601.179688 1510.37793 581.587891 1505.927734 560.07959 C 1501.469727 538.567139 1506.853027 516.916992 1522.086426 495.121338 C 1531.936035 481.02124 1543.277832 470.546143 1556.103027 463.700439 C 1568.927734 456.854492 1582.394531 454.067139 1596.498535 455.33374 C 1610.598633 456.604492 1624.519531 462.041992 1638.26123 471.637939 C 1651.623535 480.979492 1660.711426 491.962891 1665.519531 504.587891 C 1670.31543 517.217041 1671.244629 530.32959 1668.282227 543.929688 C 1665.31543 557.533691 1659.290527 570.837891 1650.207031 583.837891 Z"/>
    <path id="path9" fill="#ffffff" stroke="none" d="M 594.024902 1917.947144 L 565.850098 1941.692871 L 558.854248 1935.342896 C 551.695801 1928.49707 545.866699 1923.338745 541.366699 1919.86792 C 536.862549 1916.388794 530.920898 1912.80542 523.550049 1909.11377 C 511.833252 1903.23877 499.679199 1901.222046 487.091553 1903.063721 C 474.5 1904.897095 462.50415 1910.55957 451.108398 1920.047119 C 439.699951 1929.534546 429.929199 1942.417969 421.783447 1958.68457 C 414.50415 1973.226196 410.175049 1987.67627 408.8125 2002.05957 C 407.44165 2016.43457 409.44165 2029.376221 414.80835 2040.880371 C 420.166748 2052.393066 428.925049 2061.18457 441.079102 2067.271973 C 457.133301 2075.30957 474.979248 2080.042969 494.625 2081.467773 L 494.920898 2120.697266 C 484.5 2120.909668 472.729248 2119.351318 459.600098 2116.034668 C 446.470947 2112.713867 435.133301 2108.663574 425.591553 2103.884766 C 403.241699 2092.688721 386.645752 2078.138672 375.8125 2060.226074 C 364.966553 2042.317871 359.854248 2022.722046 360.470947 2001.455444 C 361.079102 1980.188721 366.81665 1958.705444 377.68335 1937.009644 C 388.987549 1914.447144 403.429199 1896.572144 421.020752 1883.401245 C 438.608398 1870.234619 457.954102 1862.759644 479.0625 1860.980469 C 500.170898 1859.201294 521.354248 1863.642944 542.62085 1874.288696 C 550.429199 1878.197144 559.37915 1884.17627 569.462402 1892.213745 C 579.545898 1900.255371 587.733398 1908.830444 594.024902 1917.947144"/>
    <path id="path10" fill="#ffffff" stroke="none" d="M 610.817383 2056.692139 L 682.22583 2075.683594 C 682.871582 2063.804688 680.955078 2054.258789 676.47168 2047.042114 C 671.988281 2039.817139 665.054932 2034.962891 655.675781 2032.467041 C 646.296631 2029.971191 637.675781 2030.754639 629.817383 2034.817139 C 621.959229 2038.883789 615.621582 2046.175415 610.817383 2056.692139 M 717.35083 2117.791992 L 602.325928 2087.20459 C 601.488281 2099.791992 604.155029 2110.288086 610.334229 2118.70874 C 616.504883 2127.129639 627.679932 2133.496094 643.863281 2137.791992 C 653.238281 2140.288086 662.021729 2141.246094 670.217529 2140.658691 C 678.405029 2140.07959 687.492432 2138.475586 697.484131 2135.858887 L 702.050781 2172.475586 C 691.567383 2176.971191 680.796631 2179.696289 669.750732 2180.650391 C 658.700928 2181.600586 646.254883 2180.237793 632.421631 2176.562988 C 600.059082 2167.95459 577.60083 2153.500488 565.046631 2133.217041 C 552.484131 2112.929688 549.91748 2088.837891 557.342529 2060.929688 C 562.142578 2042.875366 569.809082 2027.962891 580.34668 2016.200439 C 590.875732 2004.442139 603.575928 1996.57959 618.442383 1992.625366 C 633.300781 1988.667114 649.530029 1989.029541 667.113281 1993.70459 C 684.22998 1998.258789 697.592529 2006.08374 707.200928 2017.175415 C 716.804932 2028.262939 722.625732 2041.300415 724.671631 2056.275391 C 726.713379 2071.262939 725.521729 2087.071289 721.092529 2103.721191 Z"/>
    <path id="path11" fill="#ffffff" stroke="none" d="M 806.604248 2201.642578 L 759.358398 2199.046631 L 769.045898 2022.780029 L 799.9375 2024.47998 L 806.891602 2043.821655 C 818.225098 2036.66748 830.1875 2031.246704 842.783447 2027.567505 C 855.37915 2023.880005 866.524902 2022.309204 876.212402 2022.842529 C 898.504395 2024.063354 913.787598 2031.22583 922.058105 2044.313354 C 930.329102 2057.40918 933.845703 2075.217529 932.608398 2097.754883 L 926.537598 2208.234131 L 879.287598 2205.638184 L 885.245605 2097.333984 C 885.845703 2086.434082 884.066895 2077.830078 879.920898 2071.525879 C 875.766602 2065.22583 869.699951 2061.85083 861.704102 2061.40918 C 853.462402 2060.958984 845.604248 2062.41333 838.12915 2065.767578 C 830.654053 2069.121582 822.387451 2073.717529 813.31665 2079.525879 Z"/>
    <path id="path12" fill="#ffffff" stroke="none" d="M 1057.316406 2017.584961 L 1076.166016 2051.95166 L 1029.92041 2057.584961 L 1038.98291 2132.01416 C 1040.128906 2141.410156 1043.274414 2148.730957 1048.437012 2153.959961 C 1053.595215 2159.20166 1060.274414 2161.318359 1068.461914 2160.32251 C 1074.724609 2159.560059 1080.92041 2157.222656 1087.041016 2153.297363 L 1104.907715 2185.584961 C 1101.645508 2188.914063 1096.591309 2192.093262 1089.749512 2195.126709 C 1082.912109 2198.164063 1076.599609 2200.035156 1070.816406 2200.734863 C 1048.895508 2203.405762 1031.124512 2199.94751 1017.487305 2190.364258 C 1003.853516 2180.785156 995.820313 2165.997559 993.387207 2145.997559 L 983.312012 2063.26001 L 959.828613 2066.118164 L 955.428711 2029.993286 L 978.916016 2027.130859 L 973.853516 1985.57666 L 1019.449707 1971.593384 L 1025.520508 2021.455811 Z"/>
    <path id="path13" fill="#ffffff" stroke="none" d="M 1164.510254 2066.535156 L 1235.314453 2045.422485 C 1229.660645 2034.95166 1223.039551 2027.814209 1215.443848 2024.001709 C 1207.84375 2020.189209 1199.397949 2019.672485 1190.098145 2022.443359 C 1180.797852 2025.218384 1173.860352 2030.38916 1169.28125 2037.959961 C 1164.702148 2045.530884 1163.110352 2055.055664 1164.510254 2066.535156 M 1287.264648 2062.972656 L 1173.210449 2096.989258 C 1179.064453 2108.151611 1186.827148 2115.714111 1196.498047 2119.672363 C 1206.15625 2123.626709 1219.010254 2123.205811 1235.056152 2118.422363 C 1244.352051 2115.651611 1252.34375 2111.880859 1259.026855 2107.093262 C 1265.697754 2102.32251 1272.614746 2096.209961 1279.764648 2088.755859 L 1302.793945 2117.593262 C 1296.197754 2126.905762 1288.443848 2134.851563 1279.522949 2141.439209 C 1270.59375 2148.018311 1259.272949 2153.359863 1245.556152 2157.44751 C 1213.46875 2167.018311 1186.764648 2166.439209 1165.464355 2155.70166 C 1144.151855 2144.959961 1129.373047 2125.76001 1121.123047 2098.084961 C 1115.785645 2080.180664 1114.53125 2063.464111 1117.373047 2047.930786 C 1120.206055 2032.405884 1126.922852 2019.060059 1137.53125 2007.926636 C 1148.135254 1996.785034 1162.164551 1988.614136 1179.598145 1983.414185 C 1196.568848 1978.355835 1212.052246 1978.047485 1226.039551 1982.476685 C 1240.022949 1986.922485 1251.797852 1994.989136 1261.368652 2006.69751 C 1270.939453 2018.410034 1278.181152 2032.51416 1283.106445 2049.018311 Z"/>
    <path id="path14" fill="#ffffff" stroke="none" d="M 1401.607422 2089.968262 L 1359.157715 2110.864258 L 1281.199219 1952.476685 L 1303.407715 1941.547485 L 1330.46582 1961.089111 C 1334.765625 1950.597534 1340.690918 1940.101685 1348.245117 1929.626709 C 1355.799316 1919.143311 1363.499023 1911.972534 1371.328125 1908.118286 L 1396.536621 1937.901733 C 1389.353516 1941.439209 1381.765625 1948.414185 1373.77832 1958.834961 C 1365.791016 1969.26001 1359.211426 1980.751709 1354.032715 1993.301636 Z"/>
    <path id="path15" fill="#800e13" stroke="none" d="M 1474.902344 1143.392578 L 1474.902344 740.53833 L 904.577637 740.53833 L 334.252441 740.53833 L 334.252441 1143.392578 C 334.252441 1258.15918 309.469238 1660.488281 904.577637 1828.78833 C 1499.681641 1660.488281 1474.902344 1258.15918 1474.902344 1143.392578"/>
    <path id="path16" fill="#800e13" stroke="none" d="M 1474.902344 1143.392578 L 1474.902344 740.53833 L 904.577637 740.53833 L 334.252441 740.53833 L 334.252441 1143.392578 C 334.252441 1258.15918 309.469238 1660.488281 904.577637 1828.78833 C 1499.681641 1660.488281 1474.902344 1258.15918 1474.902344 1143.392578"/>
    <path id="path17" fill="#ffffff" stroke="none" d="M 1475.044922 1176.898682 L 1015.174316 1176.898682 L 1015.174316 740.540527 L 793.978271 740.540527 L 793.978271 1176.898682 L 340.682373 1176.898682 L 334.103271 1265.211182 L 348.969971 1342.732178 L 793.978271 1342.732178 L 793.978271 1792.286255 L 912.40332 1828.786255 L 1015.174316 1782.523804 L 1015.174316 1342.732178 L 1463.861816 1342.732178 Z"/>
    <path id="path18" fill="#ffffff" stroke="none" d="M 1403.251465 1063.00708 L 1366.80127 1047.906982 L 1403.288574 1032.794678 C 1404.967773 1032.098633 1405.768066 1030.169678 1405.072266 1028.490479 L 1394.546875 1003.082031 C 1393.851074 1001.398682 1391.921875 1000.598633 1390.242676 1001.294678 L 1353.663574 1016.44873 L 1368.813965 979.869629 C 1369.509766 978.186279 1368.709473 976.26123 1367.030273 975.561279 L 1341.62207 965.040527 C 1339.942871 964.340332 1338.013672 965.140381 1337.317871 966.82373 L 1322.163574 1003.402832 L 1307.009766 966.82373 C 1306.313965 965.140381 1304.384766 964.340332 1302.705566 965.040527 L 1277.296875 975.56543 C 1275.61377 976.26123 1274.817871 978.186279 1275.513672 979.869629 L 1290.630371 1016.357178 L 1254.046875 1001.202881 C 1252.36377 1000.50708 1250.438965 1001.307129 1249.73877 1002.990479 L 1239.217773 1028.398682 C 1238.521973 1030.082031 1239.317871 1032.00708 1241.001465 1032.707031 L 1277.709473 1047.911133 L 1241.038574 1063.098633 C 1239.355469 1063.794678 1238.55957 1065.723633 1239.255371 1067.406982 L 1249.780273 1092.81543 C 1250.476074 1094.494629 1252.405273 1095.294678 1254.084473 1094.598633 L 1290.663574 1079.44458 L 1275.513672 1116.027832 C 1274.817871 1117.707031 1275.61377 1119.63623 1277.296875 1120.332031 L 1302.705566 1130.857178 C 1304.384766 1131.552979 1306.313965 1130.75293 1307.009766 1129.07373 L 1322.163574 1092.494629 L 1337.317871 1129.07373 C 1338.013672 1130.75293 1339.942871 1131.552979 1341.62207 1130.857178 L 1367.030273 1120.332031 C 1368.713867 1119.63623 1369.509766 1117.707031 1368.813965 1116.027832 L 1353.626465 1079.353027 L 1390.205566 1094.50708 C 1391.884766 1095.202881 1393.813965 1094.402832 1394.509766 1092.719482 L 1405.034668 1067.31543 C 1405.730469 1065.63208 1404.930176 1063.702881 1403.251465 1063.00708"/>
    <path id="path19" fill="#ffffff" stroke="none" d="M 1236.890137 896.686279 L 1200.439941 881.586182 L 1236.931641 866.473633 C 1238.61084 865.777832 1239.406738 863.848633 1238.710938 862.165527 L 1228.189941 836.76123 C 1227.490234 835.077881 1225.564941 834.277832 1223.881836 834.973633 L 1187.302734 850.12793 L 1202.452637 813.548828 C 1203.148438 811.865479 1202.352539 809.94043 1200.67334 809.240479 L 1175.260742 798.719482 C 1173.581543 798.019531 1171.652344 798.81958 1170.956543 800.50293 L 1155.802734 837.082031 L 1140.652344 800.50293 C 1139.952637 798.81958 1138.027344 798.019531 1136.344238 798.719482 L 1110.936035 809.244629 C 1109.256836 809.94043 1108.456543 811.865479 1109.156738 813.548828 L 1124.269043 850.036133 L 1087.686035 834.88208 C 1086.006836 834.186279 1084.077637 834.986328 1083.381836 836.669678 L 1072.856445 862.077881 C 1072.160645 863.76123 1072.960938 865.686279 1074.644043 866.38623 L 1111.352539 881.586182 L 1074.677734 896.777832 C 1072.998535 897.473633 1072.202637 899.402832 1072.898438 901.086182 L 1083.418945 926.494629 C 1084.119141 928.173828 1086.043945 928.973633 1087.727539 928.277832 L 1124.306641 913.123779 L 1109.156738 949.707031 C 1108.460938 951.38623 1109.256836 953.31543 1110.936035 954.01123 L 1136.348145 964.536133 C 1138.027344 965.232178 1139.956543 964.432129 1140.652344 962.75293 L 1155.802734 926.173828 L 1170.956543 962.75293 C 1171.652344 964.432129 1173.581543 965.232178 1175.265137 964.536133 L 1200.67334 954.01123 C 1202.352539 953.31543 1203.148438 951.38623 1202.452637 949.707031 L 1187.265137 913.031982 L 1223.844238 928.186279 C 1225.523438 928.88208 1227.452637 928.082031 1228.148438 926.398682 L 1238.677734 900.994629 C 1239.373535 899.311279 1238.573242 897.38208 1236.890137 896.686279"/>
    <path id="path20" fill="#ffffff" stroke="none" d="M 619.075928 821.245117 L 604.513428 873.09082 L 593.150879 873.09082 L 592.97998 870.407471 C 592.009277 855.219971 588.867432 842.828369 583.78833 833.749268 C 578.934082 825.070068 571.054932 820.90332 559.804932 820.90332 C 546.559082 820.90332 535.938232 827.240723 527.317383 840.315918 C 518.467529 853.736572 511.09668 874.178223 505.388428 901.128418 C 498.650879 932.878418 497.450928 956.857422 501.79248 972.33252 C 504.759277 982.89502 511.325928 989.578369 521.60498 992.490723 C 519.550781 998.77002 517.780029 1005.449219 516.296631 1012.415771 C 516.179932 1012.874268 516.125732 1013.33252 516.009277 1013.786621 C 489.800781 1013.561768 469.588379 1004.936768 455.996582 988.265869 C 442.179932 971.249268 439.09668 943.953369 446.91748 907.124268 C 454.16748 873.09082 468.275879 847.682617 488.775879 831.46582 C 509.271729 815.307617 533.655029 807.140869 561.28833 807.140869 C 572.309082 807.140869 583.10498 808.39917 593.379883 810.794922 C 603.713379 813.307617 611.767578 816.390869 617.363281 820.103271 Z"/>
    <path id="path21" fill="#ffffff" stroke="none" d="M 696.07373 928.664551 C 690.50293 924.981201 682.436279 921.860352 672.090332 919.381348 C 661.844482 916.939697 651.048828 915.697998 639.998779 915.697998 C 612.394531 915.697998 588.00708 923.889648 567.50708 940.052002 C 546.978027 956.2229 532.902832 981.672852 525.669678 1015.693848 C 517.848877 1052.506348 520.890381 1079.793701 534.715332 1096.802002 C 548.536133 1113.810303 569.19043 1122.431152 596.103027 1122.431152 C 609.640381 1122.431152 622.765381 1119.7854 635.111328 1114.568848 C 647.394531 1109.381348 658.01123 1102.810303 666.665527 1095.043701 L 668.357178 1093.5271 L 662.265381 1082.481201 L 659.619629 1084.572998 C 652.369629 1090.314697 644.957031 1094.860352 637.582031 1098.077148 C 630.357178 1101.235352 622.57373 1102.835449 614.44873 1102.835449 C 595.811279 1102.835449 584.715332 1095.6604 580.536133 1080.897949 C 576.161133 1065.414551 577.365479 1041.447998 584.123779 1009.664551 C 589.844482 982.743652 597.223633 962.28125 606.057129 948.860352 C 614.648682 935.802002 625.26123 929.456299 638.515381 929.456299 C 649.798828 929.456299 657.640381 933.6604 662.50293 942.302002 C 667.62793 951.418701 670.723633 963.760498 671.702881 978.985352 L 671.873779 981.65625 L 683.248779 981.65625 L 697.811279 929.810303 Z"/>
    <path id="path22" fill="#ffffff" stroke="none" d="M 1462.683105 1156.616699 C 1463.554199 1280.070801 1466.245605 1655.5625 904.575195 1815.87085 C 342.895752 1655.55835 345.599854 1280.070801 346.470947 1156.616699 C 346.50415 1151.8125 346.537598 1147.345947 346.537598 1143.24585 L 346.537598 752.675049 L 1462.616699 752.675049 L 1462.616699 1143.24585 C 1462.616699 1147.345947 1462.645996 1151.8125 1462.683105 1156.616699 M 1487.25 1156.44165 C 1487.216797 1151.695801 1487.183105 1147.287598 1487.183105 1143.24585 L 1487.183105 728.108398 L 321.966553 728.108398 L 321.966553 1143.24585 C 321.966553 1147.287598 321.9375 1151.695801 321.899902 1156.445801 C 321 1284.845947 318.24585 1675.587524 901.233398 1840.458252 L 904.575195 1841.400024 L 907.916504 1840.458252 C 1490.904297 1675.587524 1488.154297 1284.845947 1487.25 1156.44165"/>
    <path id="path23" fill="#ffffff" stroke="none" d="M 34.895752 340.290039 L 25.008301 348.810791 L 48.395752 375.960938 L 57.779053 367.869141 C 62.69165 363.639893 65.654053 359.152588 66.670898 354.410889 C 67.679199 349.665039 66.320801 344.92334 62.583252 340.17334 C 58.291748 335.194092 53.912598 332.840088 49.458252 333.106689 C 45 333.373291 40.137451 335.764893 34.895752 340.290039 M 77.091553 409.260742 L 67.404053 417.61084 L 8.270752 348.98584 L 27.954102 332.031738 C 35.758301 325.30249 43.537598 321.648438 51.295898 321.056641 C 59.054199 320.473389 66.05835 323.806641 72.320801 331.073242 C 76.55835 335.98584 78.883301 341.131592 79.300049 346.514893 C 79.716553 351.902588 78.570801 357.135742 75.866699 362.227539 C 73.158447 367.310791 69.3125 372.002441 64.333252 376.294189 L 55.354248 384.031738 Z"/>
    <path id="path24" fill="#ffffff" stroke="none" d="M 125.411133 276.72583 L 136.523682 316.72998 L 160.344482 299.429932 Z M 120.161133 259.296631 L 201.165527 311.429932 L 192.023682 320.379883 L 169.498779 305.459229 L 139.640381 327.142578 L 146.561279 352.084229 L 136.432129 359.442383 L 110.786133 266.109131 Z"/>
    <path id="path25" fill="#ffffff" stroke="none" d="M 214.506348 209.784668 L 203.335449 216.534668 L 220.489502 244.92627 L 231.0896 238.517822 C 236.639648 235.167969 240.431152 231.347168 242.456299 227.05957 C 244.481201 222.776367 244.039551 218.138672 241.135498 213.151367 C 238.010498 207.980469 234.256348 205.24707 229.868652 204.938721 C 225.481201 204.634521 220.360352 206.24707 214.506348 209.784668 M 186.810303 213.913818 L 209.039551 200.484619 C 217.7854 195.201172 225.997803 192.830322 233.689697 193.36792 C 241.385498 193.909668 247.577148 198.05127 252.260498 205.80542 C 255.122803 210.718018 256.385498 215.638672 256.043701 220.563721 C 255.697998 225.49707 254.002197 230.072021 250.956299 234.30127 L 291.122803 256.726318 L 279.260498 263.888672 L 242.985352 243.005371 C 241.831299 244.013672 239.506348 245.576172 236.010498 247.688721 L 225.860352 253.817871 L 244.602051 284.830322 L 233.6521 291.442871 Z"/>
    <path id="path26" fill="#ffffff" stroke="none" d="M 345.280029 138.757813 L 317.367432 152.641357 L 353.196777 224.682861 L 341.625732 230.437012 L 305.79248 158.391357 L 279.438232 171.503662 L 274.929932 162.437012 L 339.213379 130.462158 Z"/>
    <path id="path27" fill="#ffffff" stroke="none" d="M 415.897949 195.416748 L 382.84375 111.079102 L 393.389648 106.949951 L 461.618652 152.175049 L 437.164551 89.787598 L 449.197998 85.070801 L 482.247803 169.412598 L 471.5896 173.591553 L 403.15625 127.87085 L 427.802002 190.75 Z"/>
    <path id="path28" fill="#ffffff" stroke="none" d="M 528.505371 154.085938 L 502.884521 67.198242 L 551.822021 52.769287 L 556.271973 61.73584 L 517.938721 73.035889 L 526.343018 101.531738 L 555.855469 92.827393 L 560.30127 101.794189 L 529.130371 110.98584 L 537.942871 140.885742 L 579.213867 128.715088 L 583.705322 137.806641 Z"/>
    <path id="path29" fill="#ffffff" stroke="none" d="M 630.993652 45.01416 L 618.210449 47.680908 L 624.985352 80.151611 L 637.114502 77.622559 C 643.456299 76.297607 648.297852 73.95166 651.631348 70.57666 C 654.9646 67.209961 656.081299 62.689209 654.997803 57.01416 C 653.760498 51.105713 651.127197 47.276611 647.0896 45.534912 C 643.052002 43.793213 637.685303 43.618408 630.993652 45.01416 M 603.489502 39.726563 L 628.918701 34.422607 C 638.914551 32.339111 647.456299 32.82666 654.53125 35.88501 C 661.614502 38.943359 666.077148 44.909912 667.927002 53.776611 C 669.002197 59.360107 668.556152 64.418213 666.602051 68.95166 C 664.639648 73.489258 661.5271 77.247559 657.252197 80.226563 L 687.710449 114.69751 L 674.147949 117.526611 L 646.8479 85.797607 C 645.418701 86.364258 642.710449 87.068359 638.7146 87.901611 L 627.106201 90.32666 L 634.502197 125.793213 L 621.985352 128.405762 Z"/>
    <path id="path30" fill="#ffffff" stroke="none" d="M 781.712158 102.415527 L 773.316162 12.223633 L 786.049561 11.031982 L 794.445313 101.228027 Z"/>
    <path id="path31" fill="#ffffff" stroke="none" d="M 843.192383 97.418701 L 841.40918 6.852051 L 852.738281 6.627197 L 901.067383 72.697998 L 899.746582 5.702148 L 912.66748 5.452148 L 914.446777 96.018799 L 902.996582 96.243652 L 854.650879 29.639648 L 855.97998 97.164551 Z"/>
    <path id="path32" fill="#ffffff" stroke="none" d="M 958.443359 92.466553 L 962.035156 82.55835 C 964.776855 84.25 968.185059 85.8125 972.272461 87.237549 C 976.359863 88.666748 980.268555 89.50415 983.993164 89.75415 C 990.285156 90.170898 995.230957 89.31665 998.843262 87.195801 C 1002.456055 85.079102 1004.393555 82.020752 1004.655762 78.037598 C 1004.847656 75.199951 1004.147461 72.641602 1002.563965 70.354248 C 1000.976563 68.070801 998.651855 65.912598 995.584961 63.887451 C 992.51416 61.858398 988.222656 59.416748 982.714355 56.55835 C 977.297363 53.708252 973.001465 51 969.834961 48.429199 C 966.668457 45.858398 964.343262 42.945801 962.868164 39.69165 C 961.393555 36.4375 960.801758 32.591553 961.101563 28.158447 C 961.38916 23.729248 962.855957 19.820801 965.476563 16.43335 C 968.105957 13.050049 971.726563 10.483398 976.334961 8.737549 C 980.943359 7 986.259766 6.329102 992.289063 6.729248 C 996.45166 7 1000.601563 7.854248 1004.739258 9.287598 C 1008.868164 10.716553 1012.560059 12.387451 1015.822266 14.291748 L 1010.897461 24.112549 C 1007.893555 22.399902 1005.026855 21.029053 1002.289063 20.00415 C 999.555664 18.979248 996.280762 18.337402 992.468262 18.083252 C 987.155762 17.733398 982.789063 18.470947 979.372559 20.291748 C 975.959961 22.112549 974.130859 24.929199 973.872559 28.737549 C 973.685059 31.662598 974.355957 34.266602 975.893555 36.545898 C 977.438965 38.833252 979.697266 40.962402 982.680664 42.9375 C 985.664063 44.916748 990.084961 47.479248 995.926758 50.625 C 1003.747559 54.791748 1009.410156 58.949951 1012.918457 63.095947 C 1016.435059 67.24585 1017.976563 72.420898 1017.563965 78.625 C 1017.247559 83.408447 1015.685059 87.554199 1012.872559 91.0625 C 1010.060059 94.570801 1006.147461 97.18335 1001.143555 98.895752 C 996.130859 100.612549 990.214355 101.241699 983.38916 100.795898 C 979.493164 100.537598 974.776855 99.508301 969.243164 97.720947 C 963.709961 95.929199 960.109863 94.179199 958.443359 92.466553"/>
    <path id="path33" fill="#ffffff" stroke="none" d="M 1130.473145 35.040771 L 1099.623047 30.58252 L 1088.102051 110.21167 L 1075.318848 108.365723 L 1086.831055 28.732422 L 1057.697754 24.515869 L 1059.147949 14.495117 L 1130.210449 24.77417 Z"/>
    <path id="path34" fill="#ffffff" stroke="none" d="M 1156.583984 122.304932 L 1175.916992 33.804932 L 1188.408691 36.53418 L 1169.07959 125.03418 Z"/>
    <path id="path35" fill="#ffffff" stroke="none" d="M 1299.397949 75.513428 L 1269.373047 67.129883 L 1247.731445 144.625732 L 1235.28125 141.150879 L 1256.931152 63.655029 L 1228.572754 55.734131 L 1231.293945 45.984131 L 1300.452148 65.296631 Z"/>
    <path id="path36" fill="#ffffff" stroke="none" d="M 1356.376465 84.121338 L 1336.342773 137.504639 C 1333.692871 144.571289 1333.530273 150.887939 1335.847168 156.45459 C 1338.171875 162.02124 1342.492676 165.992188 1348.80957 168.363037 C 1355.292969 170.796143 1361.18457 170.637939 1366.492676 167.887939 C 1371.788574 165.129639 1375.751465 160.262939 1378.376465 153.279541 L 1398.409668 99.89624 L 1410.501465 104.437988 L 1390.055176 158.942139 C 1387.776367 165.012939 1384.388672 169.929688 1379.893066 173.696289 C 1375.393066 177.462891 1370.134766 179.779541 1364.117676 180.654541 C 1358.101074 181.52124 1351.763672 180.712891 1345.11377 178.217041 C 1338.459473 175.721191 1333.146973 172.183838 1329.171875 167.608643 C 1325.201172 163.033691 1322.763672 157.82959 1321.876465 151.992188 C 1320.980469 146.158691 1321.671875 140.20459 1323.947266 134.133789 L 1344.401367 79.629639 Z"/>
    <path id="path37" fill="#ffffff" stroke="none" d="M 1513.521484 162.734619 L 1485.404785 149.280518 L 1450.671875 221.851318 L 1439.013184 216.276367 L 1473.750977 143.697021 L 1447.192383 130.98877 L 1451.563477 121.855469 L 1516.330078 152.855469 Z"/>
    <path id="path38" fill="#ffffff" stroke="none" d="M 1512.532715 253.969971 L 1556.92041 175.007568 L 1568.070313 181.27832 L 1523.678711 260.236572 Z"/>
    <path id="path39" fill="#ffffff" stroke="none" d="M 1596.51709 251.044189 C 1592.733887 256.744141 1590.371094 262.585938 1589.441895 268.573242 C 1588.496094 274.560791 1589.050293 280.069092 1591.092285 285.102539 C 1593.133789 290.135742 1596.487793 294.198242 1601.146484 297.294189 C 1605.95459 300.48584 1611.133789 302.035889 1616.687988 301.939941 C 1622.242188 301.844238 1627.64209 300.17749 1632.883789 296.944092 C 1638.117188 293.706787 1642.683594 289.169189 1646.562988 283.323242 C 1650.350586 277.627441 1652.691895 271.80249 1653.608887 265.852539 C 1654.521484 259.902588 1653.979492 254.42334 1651.975586 249.415039 C 1649.967285 244.406738 1646.633789 240.352539 1641.975586 237.256592 C 1637.166992 234.060791 1631.967285 232.502441 1626.379395 232.573242 C 1620.783691 232.644287 1615.375488 234.285889 1610.163086 237.481689 C 1604.950195 240.681641 1600.400391 245.202393 1596.51709 251.044189 M 1647.867188 227.898438 C 1654.754395 232.469238 1659.808594 238.256592 1663.050293 245.256592 C 1666.288086 252.260742 1667.475586 259.73999 1666.617188 267.698242 C 1665.754395 275.652588 1662.846191 283.369141 1657.883789 290.840088 C 1652.921387 298.314941 1646.896484 304.010742 1639.812988 307.939941 C 1632.721191 311.869141 1625.26709 313.73999 1617.446289 313.556641 C 1609.625488 313.377441 1602.212891 311.010742 1595.217285 306.469238 C 1588.404785 301.948242 1583.39209 296.215088 1580.163086 289.277588 C 1576.941895 282.340088 1575.750488 274.889893 1576.617188 266.931641 C 1577.479492 258.973389 1580.387695 251.260742 1585.350586 243.785889 C 1590.308594 236.314941 1596.333984 230.61499 1603.421387 226.685791 C 1610.504395 222.756592 1617.946289 220.873291 1625.729492 221.031738 C 1633.512695 221.189941 1640.887695 223.481689 1647.867188 227.898438"/>
    <path id="path40" fill="#ffffff" stroke="none" d="M 1665.970703 354.092041 L 1723.145996 283.82959 L 1731.929199 290.979492 L 1726.104004 372.633789 L 1768.399902 320.662842 L 1778.420898 328.817139 L 1721.245605 399.075439 L 1712.358398 391.846191 L 1718.520996 309.775391 L 1675.887695 362.162842 Z"/>
</svg>
