<?xml version="1.0" encoding="UTF-8"?>
<!-- Generated by Pixelmator Pro 3.6.17 -->
<svg width="2325" height="330" viewBox="0 0 2325 330" xmlns="http://www.w3.org/2000/svg">
    <path id="Path" fill="#231f20" stroke="none" d="M 2028.289673 126.672333 L 2028.289673 104.920151 L 2004.908447 104.920151 L 1985.785156 129.734558 C 1977.848389 127.676407 1970.807373 124.055908 1965.428711 118.623062 L 1955.754639 122.23941 C 1961.95813 128.226364 1971.282349 132.238495 1982.139648 134.47995 L 1945.326416 182.242249 L 1944.759766 182.242249 L 1884.681885 105.753418 L 1952.675659 19.394623 L 1952.675659 103.299469 L 1972.648926 103.299469 L 1972.648926 80.251572 C 1983.181274 84.480362 1997.629883 87.188446 2012.328613 90.525635 C 2034.022461 95.183548 2040.471802 103.449463 2040.471802 111.407059 C 2040.467651 117.556503 2036.063965 122.960175 2028.289673 126.672333 M 2035.988892 132.126007 C 2050.1875 127.57225 2060.736572 119.589645 2062.157471 108.407333 C 2062.157471 92.625443 2043.696533 86.313522 2025.523193 82.559692 C 1999.138062 77.293518 1980.38147 72.943909 1977.452637 61.524109 C 1976.915161 59.928436 1976.852661 59.120178 1976.852661 57.916107 C 1977.452637 45.596405 1994.746826 37.938782 2010.582886 37.938782 C 2026.69812 37.938782 2036.951294 40.026093 2047.212891 49.658539 L 2056.003662 46.792145 C 2044.579834 36.584747 2029.043701 33.868317 2010.582886 33.868317 C 1995.221802 33.868317 1982.123047 36.443085 1972.648926 41.055176 L 1972.648926 8.578949 L 1949.26355 8.578949 L 1889.677246 85.901062 L 1889.110718 85.901062 L 1828.378662 8.578949 L 1805.57666 8.578949 L 1805.57666 103.299469 L 1816.696411 103.299469 L 1816.696411 20.5737 L 1883.465332 104.924316 L 1862.917236 104.924316 L 1862.917236 199.640671 L 1872.337158 199.640671 L 1872.337158 116.906555 L 1939.914307 202.269592 L 1940.193481 202.269592 L 2008.33728 115.740005 L 2008.33728 199.636505 L 2028.289673 199.636505 L 2028.289673 136.667252 L 2063.557129 136.667252 L 2063.557129 225.005005 L 2084.080322 225.005005 L 2084.080322 136.667252 L 2126.563965 136.667252 L 2126.563965 132.126007 Z M 2020.248657 27.860535 L 2052.666504 8.578949 L 2042.41333 8.578949 L 2012.620239 21.994415 L 1982.310547 8.578949 L 1972.648926 8.578949 L 2005.295898 27.860535 Z"/>
    <path id="path1" fill="#231f20" stroke="none" d="M 1634.51062 248.80867 L 1639.281006 248.80867 L 1651.900635 275.943695 L 1664.707886 248.80867 L 1669.099121 248.80867 L 1669.099121 278.718445 L 1666.157715 278.718445 L 1666.274414 251.379272 L 1653.604736 278.718445 L 1650.16748 278.718445 L 1637.1604 251.379272 L 1637.447876 278.718445 L 1634.51062 278.718445 Z"/>
    <path id="path2" fill="#231f20" stroke="none" d="M 1680.525635 248.807419 L 1683.512695 248.807419 L 1683.512695 278.708862 L 1680.525635 278.708862 Z"/>
    <path id="path3" fill="#231f20" stroke="none" d="M 1694.901367 248.80867 L 1698.713501 248.80867 L 1719.632446 275.647888 L 1719.632446 248.80867 L 1722.532104 248.80867 L 1722.532104 278.718445 L 1718.549194 278.718445 L 1697.796875 251.875061 L 1697.796875 278.718445 L 1694.901367 278.718445 Z"/>
    <path id="path4" fill="#231f20" stroke="none" d="M 1733.966553 248.807419 L 1736.945435 248.807419 L 1736.945435 278.708862 L 1733.966553 278.708862 Z"/>
    <path id="path5" fill="#231f20" stroke="none" d="M 1750.24707 268.858917 L 1750.24707 269.021423 C 1750.24707 273.54184 1753.934326 276.562378 1759.729614 276.562378 C 1765.574829 276.562378 1769.003784 274.079285 1769.003784 270.437927 C 1769.003784 267.034088 1766.608154 266.171661 1761.550293 265.259247 L 1755.175781 264.134338 C 1750.405396 263.309418 1748.084839 260.822144 1748.084839 256.680878 C 1748.084839 251.548004 1752.309448 248.035828 1759.483765 248.035828 C 1766.77478 248.035828 1771.078491 251.502167 1771.241089 257.218323 L 1768.257935 257.218323 C 1767.887207 253.039536 1764.908325 250.76474 1759.558716 250.76474 C 1754.259277 250.76474 1751.151245 253.072861 1751.151245 256.522552 C 1751.151245 259.65976 1753.605103 260.738831 1758.608887 261.609589 L 1764.287476 262.601166 C 1769.707886 263.555237 1772.153442 265.880035 1772.153442 270.317139 C 1772.153442 276.033264 1767.724731 279.512115 1760.01709 279.512115 C 1751.984497 279.512115 1747.214111 275.529144 1747.214111 269.313049 L 1747.214111 268.863098 L 1750.24707 268.863098 Z"/>
    <path id="path6" fill="#231f20" stroke="none" d="M 1790.375977 251.542587 L 1778.822876 251.542587 L 1778.822876 248.809509 L 1804.912109 248.809509 L 1804.912109 251.542587 L 1793.354858 251.542587 L 1793.354858 278.710938 L 1790.375977 278.710938 Z"/>
    <path id="path7" fill="#231f20" stroke="none" d="M 1812.65979 248.80867 L 1835.649292 248.80867 L 1835.649292 251.587585 L 1815.646973 251.587585 L 1815.646973 262.074127 L 1834.116089 262.074127 L 1834.116089 264.878052 L 1815.646973 264.878052 L 1815.646973 275.897858 L 1835.649292 275.897858 L 1835.649292 278.718445 L 1812.65979 278.718445 Z"/>
    <path id="path8" fill="#231f20" stroke="none" d="M 1848.248169 251.587585 L 1848.248169 263.061523 L 1859.263794 263.061523 C 1864.771606 263.061523 1867.296387 261.52417 1867.296387 257.312073 C 1867.296387 252.874969 1864.650879 251.587585 1858.893066 251.587585 Z M 1845.256714 248.80867 L 1859.597168 248.80867 C 1866.721436 248.80867 1870.325317 251.500092 1870.325317 256.849609 C 1870.325317 260.774231 1868.750488 263.09903 1865.142456 264.29892 C 1868.542114 264.844696 1869.32959 266.415405 1869.742065 269.973389 C 1870.200317 273.948029 1869.946167 276.972778 1871.191895 278.718445 L 1867.713013 278.718445 C 1866.796509 275.981201 1867.046387 273.002289 1866.675659 269.973389 C 1866.300659 266.902863 1864.559204 265.873779 1860.834473 265.873779 L 1848.248169 265.873779 L 1848.248169 278.718445 L 1845.256714 278.718445 Z"/>
    <path id="path9" fill="#231f20" stroke="none" d="M 1882.668701 268.858917 L 1882.668701 269.021423 C 1882.668701 273.54184 1886.347534 276.562378 1892.151245 276.562378 C 1897.984009 276.562378 1901.429565 274.079285 1901.429565 270.437927 C 1901.429565 267.034088 1899.029785 266.171661 1893.971924 265.259247 L 1887.597534 264.134338 C 1882.831299 263.309418 1880.51062 260.822144 1880.51062 256.680878 C 1880.51062 251.548004 1884.735229 248.035828 1891.901245 248.035828 C 1899.192261 248.035828 1903.504395 251.502167 1903.658569 257.218323 L 1900.679565 257.218323 C 1900.304688 253.039536 1897.329956 250.76474 1891.984619 250.76474 C 1886.680908 250.76474 1883.581177 253.072861 1883.581177 256.522552 C 1883.581177 259.65976 1886.022583 260.738831 1891.030518 261.609589 L 1896.704956 262.601166 C 1902.129517 263.555237 1904.575073 265.880035 1904.575073 270.317139 C 1904.575073 276.033264 1900.146362 279.512115 1892.442871 279.512115 C 1884.406128 279.512115 1879.644043 275.529144 1879.644043 269.313049 L 1879.644043 268.863098 L 1882.668701 268.863098 Z"/>
    <path id="path10" fill="#231f20" stroke="none" d="M 1922.797974 251.542587 L 1911.244873 251.542587 L 1911.244873 248.809509 L 1937.334229 248.809509 L 1937.334229 251.542587 L 1925.781128 251.542587 L 1925.781128 278.710938 L 1922.797974 278.710938 Z"/>
    <path id="path11" fill="#231f20" stroke="none" d="M 1941.777954 248.80867 L 1945.044312 248.80867 L 1957.059937 276.152008 L 1969.067139 248.80867 L 1972.345947 248.80867 L 1958.922241 278.718445 L 1955.155884 278.718445 Z"/>
    <path id="path12" fill="#231f20" stroke="none" d="M 2006.347412 263.756897 C 2006.347412 255.728455 2001.585449 250.928894 1993.682007 250.928894 C 1985.770142 250.928894 1981.008057 255.736786 1981.008057 263.756897 C 1981.008057 271.802002 1985.770142 276.605713 1993.682007 276.605713 C 2001.585449 276.605713 2006.347412 271.802002 2006.347412 263.756897 M 1993.677734 279.509613 C 1983.857788 279.509613 1977.979248 273.501831 1977.979248 263.756897 C 1977.979248 254.036942 1983.857788 248.033325 1993.677734 248.033325 C 2003.49353 248.033325 2009.413818 254.036942 2009.413818 263.756897 C 2009.413818 273.501831 2003.49353 279.509613 1993.677734 279.509613"/>
    <path id="path13" fill="#231f20" stroke="none" d="M 2052.1604 239.658264 L 2055.360107 239.658264 L 2049.598145 245.791031 L 2046.202515 245.791031 L 2040.440552 239.658264 L 2043.631958 239.658264 L 2047.894043 244.091187 Z M 2038.619873 268.859741 L 2038.619873 269.022247 C 2038.619873 273.542664 2042.307129 276.559052 2048.102295 276.559052 C 2053.951904 276.559052 2057.380615 274.080109 2057.380615 270.438782 C 2057.380615 267.030762 2054.980957 266.172485 2049.935547 265.260071 L 2043.557007 264.135193 C 2038.794922 263.310272 2036.465942 260.822998 2036.465942 256.681702 C 2036.465942 251.548828 2040.690552 248.036652 2047.864868 248.036652 C 2055.147461 248.036652 2059.455566 251.503006 2059.626221 257.219147 L 2056.647461 257.219147 C 2056.26416 253.040375 2053.289307 250.765564 2047.939941 250.765564 C 2042.648682 250.765564 2039.532349 253.0737 2039.532349 256.523376 C 2039.532349 259.660583 2041.977905 260.739655 2046.98999 261.610413 L 2052.668701 262.60199 C 2058.097412 263.55191 2060.542969 265.880859 2060.542969 270.313782 C 2060.542969 276.029938 2056.105713 279.508789 2048.394043 279.508789 C 2040.3573 279.508789 2035.607666 275.525818 2035.607666 269.313873 L 2035.607666 268.863922 L 2038.619873 268.863922 Z"/>
    <path id="path14" fill="#231f20" stroke="none" d="M 2070.635742 248.80867 L 2073.618896 248.80867 L 2073.618896 265.173828 L 2092.129639 248.80867 L 2096.270996 248.80867 L 2082.193115 261.328369 L 2096.270996 278.718445 L 2092.467041 278.718445 L 2079.955811 263.274017 L 2073.618896 268.819336 L 2073.618896 278.718445 L 2070.635742 278.718445 Z"/>
    <path id="path15" fill="#231f20" stroke="none" d="M 2129.70459 263.756897 C 2129.70459 255.728455 2124.934082 250.928894 2117.030762 250.928894 C 2109.118896 250.928894 2104.356934 255.736786 2104.356934 263.756897 C 2104.356934 271.802002 2109.118896 276.605713 2117.030762 276.605713 C 2124.934082 276.605713 2129.70459 271.802002 2129.70459 263.756897 M 2117.030762 279.509613 C 2107.214844 279.509613 2101.336182 273.501831 2101.336182 263.756897 C 2101.336182 254.036942 2107.218994 248.033325 2117.030762 248.033325 C 2126.850586 248.033325 2132.766846 254.036942 2132.766846 263.756897 C 2132.766846 273.501831 2126.850586 279.509613 2117.030762 279.509613"/>
    <path id="path16" fill="#231f20" stroke="none" d="M 2142.500488 248.80867 L 2145.487549 248.80867 L 2145.487549 275.897858 L 2164.294189 275.897858 L 2164.294189 278.718445 L 2142.500488 278.718445 Z"/>
    <path id="path17" fill="#231f20" stroke="none" d="M 2175.01709 268.858917 L 2175.01709 269.021423 C 2175.01709 273.54184 2178.712646 276.562378 2184.507813 276.562378 C 2190.348877 276.562378 2193.786133 274.079285 2193.786133 270.437927 C 2193.786133 267.034088 2191.386475 266.171661 2186.332764 265.259247 L 2179.962402 264.134338 C 2175.187744 263.309418 2172.863037 260.822144 2172.863037 256.680878 C 2172.863037 251.548004 2177.087646 248.035828 2184.261963 248.035828 C 2191.552979 248.035828 2195.861084 251.502167 2196.019287 257.218323 L 2193.036133 257.218323 C 2192.665527 253.039536 2189.686523 250.76474 2184.336914 250.76474 C 2179.041748 250.76474 2175.933594 253.072861 2175.933594 256.522552 C 2175.933594 259.65976 2178.375 260.738831 2183.391357 261.609589 L 2189.061523 262.601166 C 2194.490234 263.555237 2196.935791 265.880035 2196.935791 270.317139 C 2196.935791 276.033264 2192.50293 279.512115 2184.803711 279.512115 C 2176.758545 279.512115 2171.996582 275.529144 2171.996582 269.313049 L 2171.996582 268.863098 L 2175.01709 268.863098 Z"/>
    <path id="path18" fill="#231f20" stroke="none" d="M 2215.157959 251.542587 L 2203.604736 251.542587 L 2203.604736 248.809509 L 2229.694092 248.809509 L 2229.694092 251.542587 L 2218.145264 251.542587 L 2218.145264 278.710938 L 2215.157959 278.710938 Z"/>
    <path id="path19" fill="#231f20" stroke="none" d="M 2234.126221 248.80867 L 2237.405029 248.80867 L 2249.412354 276.152008 L 2261.432129 248.80867 L 2264.698486 248.80867 L 2251.266357 278.718445 L 2247.50415 278.718445 Z"/>
    <path id="path20" fill="#231f20" stroke="none" d="M 2276.671875 239.658264 L 2280.442383 239.658264 L 2275.547119 245.791031 L 2273.109863 245.791031 Z M 2272.768066 248.807419 L 2275.755371 248.807419 L 2275.755371 278.708862 L 2272.768066 278.708862 Z"/>
    <path id="path21" fill="#231f20" stroke="none" d="M 2288.674072 275.071686 L 2292.040527 275.071686 L 2292.040527 279.921234 C 2292.040527 282.816803 2291.290527 284.3125 2288.674072 285.187439 L 2288.674072 283.275116 C 2289.803223 282.700165 2290.169922 281.871063 2290.169922 280.500366 L 2290.169922 278.713013 L 2288.674072 278.713013 Z"/>
    <path id="path22" fill="#231f20" stroke="none" d="M 1685.132202 295.260254 L 1689.077759 295.260254 L 1699.572632 317.779022 L 1710.192383 295.260254 L 1713.837891 295.260254 L 1713.837891 320.087158 L 1711.392334 320.087158 L 1711.50061 297.397552 L 1700.976563 320.087158 L 1698.122681 320.087158 L 1687.32373 297.397552 L 1687.565308 320.087158 L 1685.132202 320.087158 Z"/>
    <path id="path23" fill="#231f20" stroke="none" d="M 1722.470459 295.260254 L 1724.945313 295.260254 L 1724.945313 317.749878 L 1740.552124 317.749878 L 1740.552124 320.087158 L 1722.470459 320.087158 Z"/>
    <path id="path24" fill="#231f20" stroke="none" d="M 1759.291748 287.655945 L 1762.424805 287.655945 L 1758.366821 292.751312 L 1756.337769 292.751312 Z M 1763.074707 310.012238 L 1757.404419 297.330078 L 1751.696533 310.012238 Z M 1755.987793 295.25943 L 1758.850098 295.25943 L 1770.157349 320.090485 L 1767.649292 320.090485 L 1764.182983 312.416199 L 1750.59668 312.416199 L 1747.084473 320.090485 L 1744.534668 320.090485 Z"/>
    <path id="path25" fill="#231f20" stroke="none" d="M 1778.613281 297.502136 L 1778.613281 317.712799 L 1785.179321 317.712799 C 1788.729004 317.712799 1791.299561 317.479492 1793.324463 316.129608 C 1795.77417 314.517242 1796.803223 311.730011 1796.803223 307.501221 C 1796.803223 303.372437 1795.70752 300.61853 1793.324463 299.043671 C 1791.237061 297.660461 1788.483154 297.502136 1784.625244 297.502136 Z M 1795.357544 297.502136 C 1798.11145 299.626953 1799.353027 302.968292 1799.353027 307.672028 C 1799.353027 312.384094 1798.11145 315.725464 1795.357544 317.854431 C 1792.812012 319.808441 1789.624756 320.083405 1785.179321 320.083405 L 1776.13855 320.083405 L 1776.13855 295.25235 L 1785.179321 295.25235 C 1789.624756 295.260681 1792.812012 295.535645 1795.357544 297.502136"/>
    <path id="path26" fill="#231f20" stroke="none" d="M 1806.744019 295.260254 L 1825.825684 295.260254 L 1825.825684 297.560059 L 1809.2146 297.560059 L 1809.2146 306.263428 L 1824.550781 306.263428 L 1824.550781 308.609039 L 1809.2146 308.609039 L 1809.2146 317.749878 L 1825.825684 317.749878 L 1825.825684 320.087158 L 1806.744019 320.087158 Z"/>
    <path id="path27" fill="#231f20" stroke="none" d="M 1847.068237 287.655945 L 1849.722168 287.655945 L 1844.943481 292.751312 L 1842.122925 292.751312 L 1837.339966 287.655945 L 1839.989746 287.655945 L 1843.531128 291.343109 Z M 1831.290527 317.649048 L 1849.551392 297.559204 L 1832.19043 297.559204 L 1832.19043 295.255249 L 1852.988525 295.255249 L 1852.988525 297.559204 L 1834.386108 317.649048 L 1852.988525 317.649048 L 1852.988525 320.086334 L 1831.290527 320.086334 Z"/>
    <path id="path28" fill="#231f20" stroke="none" d="M 1859.795044 295.260254 L 1878.876587 295.260254 L 1878.876587 297.560059 L 1862.278076 297.560059 L 1862.278076 306.263428 L 1877.601685 306.263428 L 1877.601685 308.609039 L 1862.278076 308.609039 L 1862.278076 317.749878 L 1878.876587 317.749878 L 1878.876587 320.087158 L 1859.795044 320.087158 Z"/>
    <path id="path29" fill="#231f20" stroke="none" d="M 1915.946167 310.013062 L 1910.275879 297.330902 L 1904.563843 310.013062 Z M 1908.859253 295.260254 L 1911.708984 295.260254 L 1923.028809 320.091309 L 1920.520752 320.091309 L 1917.050171 312.417023 L 1903.463989 312.417023 L 1899.960083 320.091309 L 1897.410278 320.091309 Z"/>
    <path id="path30" fill="#231f20" stroke="none" d="M 1949.646851 297.530457 L 1940.043457 297.530457 L 1940.043457 295.259827 L 1961.712402 295.259827 L 1961.712402 297.530457 L 1952.117432 297.530457 L 1952.117432 320.086731 L 1949.646851 320.086731 Z"/>
    <path id="path31" fill="#231f20" stroke="none" d="M 1980.727295 287.655945 L 1983.377075 287.655945 L 1978.594116 292.751312 L 1975.77771 292.751312 L 1970.994873 287.655945 L 1973.640503 287.655945 L 1977.181763 291.343109 Z M 1967.453491 295.25943 L 1986.539307 295.25943 L 1986.539307 297.559204 L 1969.928345 297.559204 L 1969.928345 306.262573 L 1985.268555 306.262573 L 1985.268555 308.612366 L 1969.928345 308.612366 L 1969.928345 317.753204 L 1986.539307 317.753204 L 1986.539307 320.090485 L 1967.453491 320.090485 Z"/>
    <path id="path32" fill="#231f20" stroke="none" d="M 1993.828125 295.260254 L 1996.307129 295.260254 L 1996.307129 317.749878 L 2011.914063 317.749878 L 2011.914063 320.087158 L 1993.828125 320.087158 Z"/>
    <path id="path33" fill="#231f20" stroke="none" d="M 2038.351196 307.673706 C 2038.351196 300.999329 2034.401611 297.016357 2027.835449 297.016357 C 2021.265259 297.016357 2017.307251 300.999329 2017.307251 307.673706 C 2017.307251 314.343933 2021.265259 318.335236 2027.835449 318.335236 C 2034.401611 318.335236 2038.351196 314.343933 2038.351196 307.673706 M 2027.835449 320.739166 C 2019.682129 320.739166 2014.799194 315.752136 2014.799194 307.673706 C 2014.799194 299.591125 2019.682129 294.604065 2027.835449 294.604065 C 2035.980591 294.604065 2040.896851 299.591125 2040.896851 307.673706 C 2040.896851 315.752136 2035.980591 320.739166 2027.835449 320.739166"/>
    <path id="path34" fill="#231f20" stroke="none" d="M 2044.893555 295.260254 L 2047.597412 295.260254 L 2057.579834 317.945679 L 2067.541504 295.260254 L 2070.261963 295.260254 L 2059.121338 320.087158 L 2055.992432 320.087158 Z"/>
    <path id="path35" fill="#231f20" stroke="none" d="M 2087.89502 287.655945 L 2091.028076 287.655945 L 2086.969971 292.751312 L 2084.937012 292.751312 Z M 2084.29541 309.362305 L 2073.600586 295.255249 L 2076.754395 295.255249 L 2085.528564 307.362488 L 2094.394531 295.255249 L 2097.469238 295.255249 L 2086.765869 309.362305 L 2086.765869 320.086334 L 2084.29541 320.086334 Z"/>
    <path id="path36" fill="#231f20" stroke="none" d="M 2115.374512 297.018005 C 2108.871094 297.018005 2104.887939 301.042633 2104.887939 307.675385 C 2104.887939 314.241455 2108.871094 318.299408 2114.891357 318.299408 C 2119.886719 318.299408 2123.69043 315.41217 2124.69043 310.766754 L 2127.344238 310.766754 C 2126.215332 316.887024 2121.465576 320.736694 2114.966309 320.736694 C 2107.362793 320.736694 2102.379883 315.653809 2102.379883 307.675385 C 2102.379883 299.592773 2107.254395 294.609894 2115.41626 294.609894 C 2121.878174 294.609894 2126.140381 297.938751 2126.931885 303.371613 L 2124.423828 303.371613 C 2123.44873 299.31781 2120.219971 297.018005 2115.374512 297.018005"/>
    <path id="path37" fill="#231f20" stroke="none" d="M 2134.175781 295.260254 L 2136.663086 295.260254 L 2136.663086 305.613464 L 2152.819824 305.613464 L 2152.819824 295.260254 L 2155.294678 295.260254 L 2155.294678 320.087158 L 2152.819824 320.087158 L 2152.819824 307.9841 L 2136.663086 307.9841 L 2136.663086 320.087158 L 2134.175781 320.087158 Z"/>
    <path id="path38" fill="#231f20" stroke="none" d="M 2186.270508 307.673706 C 2186.270508 300.999329 2182.325195 297.016357 2175.759033 297.016357 C 2169.18457 297.016357 2165.230957 300.999329 2165.230957 307.673706 C 2165.230957 314.343933 2169.18457 318.335236 2175.759033 318.335236 C 2182.325195 318.335236 2186.270508 314.343933 2186.270508 307.673706 M 2175.759033 320.739166 C 2167.597412 320.739166 2162.722656 315.752136 2162.722656 307.673706 C 2162.722656 299.591125 2167.597412 294.604065 2175.759033 294.604065 C 2183.899902 294.604065 2188.820313 299.591125 2188.820313 307.673706 C 2188.820313 315.752136 2183.899902 320.739166 2175.759033 320.739166"/>
    <path id="path39" fill="#231f20" stroke="none" d="M 2192.804932 295.260254 L 2195.521484 295.260254 L 2205.491455 317.945679 L 2215.465332 295.260254 L 2218.186035 295.260254 L 2207.04126 320.087158 L 2203.908203 320.087158 Z"/>
    <path id="path40" fill="#231f20" stroke="none" d="M 2232.213867 309.362305 L 2221.519043 295.25943 L 2224.677002 295.25943 L 2233.447021 307.366638 L 2242.325439 295.25943 L 2245.387695 295.25943 L 2234.692871 309.362305 L 2234.692871 320.086334 L 2232.213867 320.086334 Z"/>
    <path id="path41" fill="#231f20" stroke="none" d="M 134.987244 167.024902 L 124.946495 159.821381 L 137.320358 159.858887 L 141.111679 148.026627 L 144.903 159.821381 L 157.276871 159.821381 L 147.23613 167.024902 L 150.985779 178.690491 L 141.111679 171.482819 L 131.237595 178.690491 Z"/>
    <path id="path42" fill="#231f20" stroke="none" d="M 170.984375 211.063782 L 160.943619 218.267303 L 164.73494 229.937073 L 154.819183 222.687714 L 144.945084 229.937073 L 148.736404 218.267303 L 138.695663 211.063782 L 151.069519 211.063782 L 154.819183 199.231537 L 158.610504 211.063782 Z"/>
    <path id="path43" fill="#231f20" stroke="none" d="M 148.737244 115.9879 L 138.696487 108.784378 L 151.070358 108.784378 L 154.820023 96.947968 L 158.611343 108.784378 L 170.985199 108.784378 L 160.944458 115.9879 L 164.735779 127.653488 L 154.820023 120.445816 L 144.945923 127.653488 Z"/>
    <path id="path44" fill="#231f20" stroke="none" d="M 186.107574 78.491318 L 176.10849 71.287811 L 188.482361 71.287811 L 192.23201 59.451385 L 196.023331 71.287811 L 208.397202 71.287811 L 198.356461 78.491318 L 202.10611 90.156921 L 192.23201 82.949249 L 182.35791 90.156921 Z"/>
    <path id="path45" fill="#231f20" stroke="none" d="M 208.480942 248.519531 L 198.440201 255.764709 L 202.18985 267.434479 L 192.31575 260.18512 L 182.441666 267.434479 L 186.191315 255.764709 L 176.19223 248.519531 L 188.524429 248.561188 L 192.31575 236.728943 L 196.107071 248.519531 Z"/>
    <path id="path46" fill="#231f20" stroke="none" d="M 237.270813 269.350952 L 227.230072 262.14328 L 239.603928 262.14328 L 243.395248 250.311035 L 247.186569 262.14328 L 259.560455 262.14328 L 249.519699 269.350952 L 253.269348 281.016571 L 243.395248 273.767212 L 233.521164 281.016571 Z"/>
    <path id="path47" fill="#231f20" stroke="none" d="M 237.270813 64.743408 L 227.230072 57.535736 L 239.603928 57.535736 L 243.395248 45.745148 L 247.186569 57.535736 L 259.560455 57.535736 L 249.519699 64.743408 L 253.269348 76.409012 L 243.395248 69.201324 L 233.521164 76.409012 Z"/>
    <path id="path48" fill="#231f20" stroke="none" d="M 288.348633 255.765961 L 278.307892 248.520782 L 290.681763 248.562439 L 294.473083 236.730194 L 298.222748 248.520782 L 310.596619 248.520782 L 300.597534 255.765961 L 304.347168 267.43573 L 294.473083 260.186371 L 284.598999 267.43573 Z"/>
    <path id="path49" fill="#231f20" stroke="none" d="M 288.474457 78.491318 L 278.475372 71.287811 L 290.807587 71.287811 L 294.598907 59.451385 L 298.390228 71.287811 L 310.764099 71.287811 L 300.723358 78.491318 L 304.472992 90.156921 L 294.636414 82.949249 L 284.724823 90.156921 Z"/>
    <path id="path50" fill="#231f20" stroke="none" d="M 325.845215 218.269379 L 315.804474 211.065872 L 328.136688 211.065872 L 331.928009 199.233612 L 335.71933 211.065872 L 348.093201 211.065872 L 338.052429 218.269379 L 341.84375 229.939148 L 331.928009 222.689804 L 322.053894 229.939148 Z"/>
    <path id="path51" fill="#231f20" stroke="none" d="M 325.845215 115.821243 L 315.804474 108.617737 L 328.136688 108.655228 L 331.928009 96.822983 L 335.71933 108.617737 L 348.093201 108.617737 L 338.052429 115.821243 L 341.84375 127.486847 L 331.928009 120.279175 L 322.053894 127.486847 Z"/>
    <path id="path52" fill="#231f20" stroke="none" d="M 345.510925 147.861649 L 349.302246 159.693893 L 361.676117 159.693893 L 351.635376 166.8974 L 355.38501 178.567169 L 345.510925 171.359497 L 335.63681 178.567169 L 339.386475 166.8974 L 329.38739 159.693893 L 341.719604 159.693893 Z"/>
    <path id="path53" fill="#231f20" stroke="none" d="M 0 330 L 486.955475 330 L 486.955475 -0.665588 L 0 -0.665588 Z M 9.374144 8.375244 L 477.623016 8.375244 L 477.623016 320.555023 L 9.374144 320.555023 Z"/>
    <path id="path54" fill="#231f20" stroke="none" d="M 131.238007 178.689667 L 134.987656 167.024063 L 124.946915 159.820557 L 137.320786 159.858047 L 141.112106 148.029968 L 144.903427 159.820557 L 157.277298 159.820557 L 147.236542 167.024063 L 150.986206 178.689667 L 141.112106 171.48616 Z"/>
    <path id="path55" fill="#231f20" stroke="none" d="M 170.984375 211.063782 L 160.943619 218.267303 L 164.73494 229.937073 L 154.819183 222.687714 L 144.945084 229.937073 L 148.736404 218.267303 L 138.695663 211.063782 L 151.069519 211.063782 L 154.819183 199.231537 L 158.610504 211.063782 Z"/>
    <path id="path56" fill="#231f20" stroke="none" d="M 158.609665 108.782303 L 170.983536 108.782303 L 160.942795 115.985809 L 164.734116 127.651413 L 154.818344 120.447906 L 144.94426 127.651413 L 148.73558 115.985809 L 138.694824 108.782303 L 151.068695 108.782303 L 154.818344 96.945877 Z"/>
    <path id="path57" fill="#231f20" stroke="none" d="M 186.107574 78.491318 L 176.10849 71.287811 L 188.482361 71.287811 L 192.23201 59.451385 L 196.023331 71.287811 L 208.397202 71.287811 L 198.356461 78.491318 L 202.10611 90.156921 L 192.23201 82.949249 L 182.35791 90.156921 Z"/>
    <path id="path58" fill="#231f20" stroke="none" d="M 208.480942 248.519531 L 198.440201 255.764709 L 202.18985 267.434479 L 192.31575 260.18512 L 182.441666 267.434479 L 186.191315 255.764709 L 176.19223 248.519531 L 188.524429 248.561188 L 192.31575 236.728943 L 196.107071 248.519531 Z"/>
    <path id="path59" fill="#231f20" stroke="none" d="M 259.558777 262.141602 L 249.518021 269.349304 L 253.267685 281.014893 L 243.393585 273.765564 L 233.519485 281.014893 L 237.26915 269.349304 L 227.228394 262.141602 L 239.602264 262.141602 L 243.393585 250.309357 L 247.184906 262.141602 Z"/>
    <path id="path60" fill="#231f20" stroke="none" d="M 247.186157 57.533661 L 259.560028 57.533661 L 249.519272 64.741333 L 253.268936 76.406921 L 243.394836 69.20343 L 233.520737 76.406921 L 237.270401 64.741333 L 227.229645 57.533661 L 239.603516 57.533661 L 243.394836 45.747223 Z"/>
    <path id="path61" fill="#231f20" stroke="none" d="M 310.595764 248.519531 L 300.59668 255.764709 L 304.346344 267.434479 L 294.47226 260.18512 L 284.598145 267.434479 L 288.347809 255.764709 L 278.307068 248.519531 L 290.680939 248.561188 L 294.47226 236.728943 L 298.221924 248.519531 Z"/>
    <path id="path62" fill="#231f20" stroke="none" d="M 298.389801 71.285736 L 310.763672 71.285736 L 300.722931 78.489243 L 304.472595 90.154831 L 294.640167 82.951324 L 284.724396 90.154831 L 288.47406 78.489243 L 278.474976 71.285736 L 290.807159 71.285736 L 294.59848 59.44931 Z"/>
    <path id="path63" fill="#231f20" stroke="none" d="M 348.092346 211.063782 L 338.051605 218.267303 L 341.842926 229.937073 L 331.927155 222.687714 L 322.05307 229.937073 L 325.844391 218.267303 L 315.80365 211.063782 L 328.135834 211.063782 L 331.927155 199.231537 L 335.718475 211.063782 Z"/>
    <path id="path64" fill="#231f20" stroke="none" d="M 325.845215 115.821243 L 315.804474 108.617737 L 328.136688 108.655228 L 331.928009 96.822983 L 335.71933 108.617737 L 348.093201 108.617737 L 338.052429 115.821243 L 341.84375 127.486847 L 331.928009 120.279175 L 322.053894 127.486847 Z"/>
    <path id="path65" fill="#231f20" stroke="none" d="M 351.634125 166.898651 L 355.383759 178.56842 L 345.509674 171.356583 L 335.635559 178.56842 L 339.385223 166.898651 L 329.386139 159.695145 L 341.718353 159.695145 L 345.509674 147.8629 L 349.300995 159.695145 L 361.674866 159.695145 Z"/>
    <path id="path66" fill="#231f20" stroke="none" d="M 249.519272 64.743408 L 253.268936 76.409012 L 243.394836 69.201324 L 233.520737 76.409012 L 237.270401 64.743408 L 227.229645 57.535736 L 239.603516 57.535736 L 243.394836 45.745148 L 247.186157 57.535736 L 259.560028 57.535736 Z"/>
    <path id="path67" fill="#231f20" stroke="none" d="M 198.356461 78.491318 L 202.10611 90.156921 L 192.23201 82.949249 L 182.35791 90.156921 L 186.107574 78.491318 L 176.10849 71.287811 L 188.482361 71.287811 L 192.23201 59.451385 L 196.023331 71.287811 L 208.397202 71.287811 Z"/>
    <path id="path68" fill="#231f20" stroke="none" d="M 160.943207 115.9879 L 164.734528 127.653488 L 154.818771 120.445816 L 144.944672 127.653488 L 148.735992 115.9879 L 138.695236 108.784378 L 151.069107 108.784378 L 154.818771 96.947968 L 158.610092 108.784378 L 170.983963 108.784378 Z"/>
    <path id="path69" fill="#231f20" stroke="none" d="M 147.235703 167.024902 L 150.985367 178.690491 L 141.111267 171.482819 L 131.237167 178.690491 L 134.986832 167.024902 L 124.946083 159.821381 L 137.319946 159.858887 L 141.111267 148.026627 L 144.902588 159.821381 L 157.276459 159.821381 Z"/>
    <path id="path70" fill="#231f20" stroke="none" d="M 160.943207 218.269379 L 164.734528 229.939148 L 154.818771 222.689804 L 144.944672 229.939148 L 148.735992 218.269379 L 138.695236 211.065872 L 151.069107 211.065872 L 154.818771 199.233612 L 158.610092 211.065872 L 170.983963 211.065872 Z"/>
    <path id="path71" fill="#231f20" stroke="none" d="M 198.439774 255.765961 L 202.189438 267.43573 L 192.315338 260.186371 L 182.441238 267.43573 L 186.190903 255.765961 L 176.191818 248.520782 L 188.524017 248.562439 L 192.315338 236.730194 L 196.106659 248.520782 L 208.48053 248.520782 Z"/>
    <path id="path72" fill="#231f20" stroke="none" d="M 249.519272 269.350952 L 253.268936 281.016571 L 243.394836 273.767212 L 233.520737 281.016571 L 237.270401 269.350952 L 227.229645 262.14328 L 239.603516 262.14328 L 243.394836 250.311035 L 247.186157 262.14328 L 259.560028 262.14328 Z"/>
    <path id="path73" fill="#231f20" stroke="none" d="M 300.597107 255.765961 L 304.346771 267.43573 L 294.472656 260.186371 L 284.598572 267.43573 L 288.348236 255.765961 L 278.307495 248.520782 L 290.681335 248.562439 L 294.472656 236.730194 L 298.222321 248.520782 L 310.596191 248.520782 Z"/>
    <path id="path74" fill="#231f20" stroke="none" d="M 338.052856 218.269379 L 341.844177 229.939148 L 331.928406 222.689804 L 322.054321 229.939148 L 325.845642 218.269379 L 315.804871 211.065872 L 328.137085 211.065872 L 331.928406 199.233612 L 335.719727 211.065872 L 348.093597 211.065872 Z"/>
    <path id="path75" fill="#231f20" stroke="none" d="M 351.634125 166.898651 L 355.383759 178.56842 L 345.509674 171.356583 L 335.635559 178.56842 L 339.385223 166.898651 L 329.386139 159.695145 L 341.718353 159.695145 L 345.509674 147.8629 L 349.300995 159.695145 L 361.674866 159.695145 Z"/>
    <path id="path76" fill="#231f20" stroke="none" d="M 338.052856 115.821243 L 341.844177 127.486847 L 331.928406 120.279175 L 322.054321 127.486847 L 325.845642 115.821243 L 315.804871 108.617737 L 328.137085 108.655228 L 331.928406 96.822983 L 335.719727 108.617737 L 348.093597 108.617737 Z"/>
    <path id="path77" fill="#231f20" stroke="none" d="M 300.723358 78.491318 L 304.472992 90.156921 L 294.640564 82.949249 L 284.724823 90.156921 L 288.474457 78.491318 L 278.475372 71.287811 L 290.807587 71.287811 L 294.598907 59.451385 L 298.390228 71.287811 L 310.764099 71.287811 Z"/>
    <path id="path78" fill="#231f20" stroke="none" d="M 583.328796 112.346558 C 588.357483 112.346558 592.015503 111.496643 594.306946 109.796799 C 596.602539 108.092789 597.744141 105.688828 597.744141 102.584946 C 597.744141 100.739288 597.356628 99.147766 596.577576 97.818726 C 595.802612 96.485504 594.698547 95.28978 593.252869 94.21489 C 591.81134 93.148315 590.057312 92.144241 587.986694 91.223495 C 585.916016 90.298569 583.553772 89.39032 580.891479 88.502899 C 578.229248 87.548828 575.65448 86.490585 573.179688 85.34903 C 570.700745 84.199127 568.52179 82.778427 566.63446 81.070251 C 564.751282 79.370407 563.234802 77.341431 562.08905 74.97081 C 560.943298 72.608521 560.372559 69.758789 560.372559 66.429932 C 560.372559 59.484711 562.776489 54.035217 567.5802 50.081421 C 572.388123 46.123444 578.929199 44.14447 587.211731 44.14447 C 592.015503 44.14447 596.281738 44.681915 600.014771 45.756805 C 603.747742 46.823395 606.693298 47.989929 608.838928 49.243988 L 604.510193 60.55545 C 601.997925 59.151428 599.239807 58.080688 596.248413 57.339081 C 593.252869 56.601654 590.1698 56.230865 586.986755 56.230865 C 583.220459 56.230865 580.279053 57.009949 578.170898 58.559814 C 576.071106 60.113831 575.012878 62.292816 575.012878 65.100891 C 575.012878 66.80072 575.358643 68.267242 576.071106 69.487976 C 576.762695 70.70871 577.762634 71.796112 579.05835 72.754333 C 580.349854 73.716766 581.866394 74.600006 583.612061 75.416595 C 585.341064 76.229034 587.249268 77.008118 589.315735 77.74556 C 592.940369 79.078766 596.173401 80.42865 599.018982 81.795181 C 601.864563 83.165894 604.272705 84.786575 606.226685 86.67807 C 608.184814 88.561234 609.688843 90.777695 610.722107 93.331635 C 611.75531 95.873062 612.276123 98.964447 612.276123 102.584946 C 612.276123 109.534317 609.817993 114.91716 604.897644 118.725143 C 599.981384 122.533127 592.790405 124.432953 583.328796 124.432953 C 580.149902 124.432953 577.245972 124.228806 574.621216 123.828842 C 571.99646 123.420547 569.667542 122.916428 567.634399 122.328979 C 565.601196 121.737366 563.847229 121.120758 562.368164 120.499985 C 560.88916 119.875046 559.710083 119.295929 558.822693 118.779312 L 562.926453 107.355347 C 564.922119 108.463577 567.617676 109.571808 571.017395 110.684204 C 574.421265 111.79245 578.525024 112.346558 583.328796 112.346558"/>
    <path id="path79" fill="#231f20" stroke="none" d="M 659.023926 107.447845 C 656.774109 110.780869 653.191162 112.447388 648.316589 112.447388 C 646.108459 112.447388 644.02533 112.114075 642.067139 111.405807 C 640.109009 110.69754 638.525818 109.947617 637.359253 109.114349 L 637.359253 75.992386 C 638.650818 75.617416 640.025696 75.367447 641.400574 75.242447 C 642.733765 75.159119 644.066956 75.07164 645.316833 75.07164 C 651.316284 75.07164 655.649231 76.74231 658.3573 80.075348 C 661.06543 83.404205 662.398621 88.074615 662.398621 94.032394 C 662.398621 99.656891 661.273743 104.156479 659.023926 107.447845 M 674.105896 81.241898 C 672.731018 77.492249 670.772888 74.325867 668.231445 71.701111 C 665.690002 69.076355 662.606934 67.076538 658.9823 65.660004 C 655.357605 64.243469 651.232971 63.535187 646.650085 63.535187 C 642.233826 63.535187 637.984192 63.8685 634.026245 64.535095 C 630.026611 65.201691 626.651917 65.909973 623.902161 66.659912 L 623.902161 143.277908 L 637.359253 143.277908 L 637.359253 120.779953 C 638.817444 121.571548 640.692261 122.321487 642.983704 122.983917 C 645.275208 123.654694 647.81665 123.987991 650.524719 123.987991 C 654.607666 123.987991 658.232361 123.238068 661.440369 121.779861 C 664.690063 120.279999 667.356506 118.238525 669.481323 115.572098 C 671.647766 112.90567 673.272644 109.739304 674.439209 106.031311 C 675.564087 102.323303 676.147339 98.282013 676.147339 93.819916 C 676.147339 89.157852 675.480774 84.991562 674.105896 81.241898"/>
    <path id="path80" fill="#231f20" stroke="none" d="M 725.01709 107.574081 C 722.517273 110.986267 719.059265 112.694443 714.643005 112.694443 C 710.18512 112.694443 706.727051 110.986267 704.268982 107.574081 C 701.769165 104.195221 700.560974 99.574814 700.560974 93.700348 C 700.560974 87.950867 701.769165 83.3638 704.268982 80.034927 C 706.727051 76.660233 710.18512 74.993729 714.643005 74.993729 C 719.059265 74.993729 722.517273 76.660233 725.01709 80.034927 C 727.475159 83.3638 728.725037 87.950867 728.725037 93.700348 C 728.725037 99.574814 727.475159 104.195221 725.01709 107.574081 M 740.432312 81.243149 C 739.057434 77.489334 737.14093 74.327118 734.724487 71.660706 C 732.266418 68.990112 729.349976 66.952789 725.891968 65.490417 C 722.43396 64.036407 718.684326 63.328125 714.643005 63.328125 C 710.560059 63.328125 706.852051 64.036407 703.43573 65.490417 C 700.019348 66.952789 697.102966 68.990112 694.60321 71.660706 C 692.145081 74.327118 690.228577 77.489334 688.853699 81.243149 C 687.478821 84.992813 686.812256 89.113266 686.812256 93.700348 C 686.812256 98.283264 687.478821 102.487045 688.853699 106.240875 C 690.228577 110.032181 692.103394 113.236069 694.561523 115.906647 C 697.019653 118.573074 699.936035 120.614548 703.31073 122.110245 C 706.727051 123.572617 710.476746 124.322556 714.643005 124.322556 C 718.767639 124.322556 722.55896 123.572617 726.016968 122.110245 C 729.43335 120.614548 732.391418 118.573074 734.807861 115.906647 C 737.26593 113.236069 739.140808 110.032181 740.473999 106.240875 C 741.80719 102.487045 742.473816 98.283264 742.473816 93.700348 C 742.473816 89.113266 741.765564 84.992813 740.432312 81.243149"/>
    <path id="path81" fill="#231f20" stroke="none" d="M 776.511963 123.88092 C 772.52063 123.805923 769.216797 123.364304 766.592041 122.55188 C 763.963074 121.735291 761.871643 120.577057 760.321777 119.060532 C 758.767761 117.544006 757.680359 115.656677 757.051208 113.394379 C 756.422119 111.148758 756.105469 108.57399 756.105469 105.695084 L 756.105469 38.930359 L 769.525085 36.713898 L 769.525085 103.141144 C 769.525085 104.766006 769.658386 106.136719 769.916687 107.244949 C 770.175049 108.35318 770.633301 109.29892 771.299927 110.078018 C 771.966553 110.852951 772.874756 111.444565 774.020508 111.848694 C 775.16626 112.256989 776.620239 112.569458 778.395081 112.790268 Z"/>
    <path id="path82" fill="#231f20" stroke="none" d="M 836.841858 120.996185 C 834.254578 121.65863 830.888245 122.346069 826.751099 123.050171 C 822.609802 123.745941 818.064392 124.100067 813.110657 124.100067 C 808.452759 124.100067 804.553162 123.437622 801.411743 122.104416 C 798.270386 120.77121 795.758118 118.925537 793.870789 116.563263 C 791.98761 114.192642 790.633545 111.367905 789.821167 108.076538 C 789.008728 104.789337 788.600403 101.181335 788.600403 97.265015 L 788.600403 64.772156 L 802.02002 64.772156 L 802.02002 95.156876 C 802.02002 101.364655 802.928284 105.805908 804.740601 108.464005 C 806.544617 111.126251 809.706848 112.455307 814.218933 112.455307 C 815.84375 112.455307 817.568604 112.384476 819.38092 112.234482 C 821.189087 112.084503 822.534851 111.901184 823.422241 111.680374 L 823.422241 64.772156 L 836.841858 64.772156 Z"/>
    <path id="path83" fill="#231f20" stroke="none" d="M 898.709534 122.777283 L 912.124939 122.777283 L 912.124939 64.782562 L 898.709534 64.782562 Z M 911.250061 41.701355 C 909.625183 40.247314 907.708679 39.497406 905.500549 39.497406 C 903.209106 39.497406 901.250977 40.247314 899.626099 41.701355 C 898.001221 43.163727 897.167969 45.201019 897.167969 47.784119 C 897.167969 50.329742 898.001221 52.325378 899.626099 53.78775 C 901.250977 55.283417 903.209106 55.99588 905.500549 55.99588 C 907.708679 55.99588 909.625183 55.283417 911.250061 53.78775 C 912.874878 52.325378 913.70813 50.329742 913.70813 47.784119 C 913.70813 45.201019 912.874878 43.163727 911.250061 41.701355 M 867.337341 60.912109 C 867.337341 57.120758 868.170654 54.033569 869.837158 51.70462 C 871.503662 49.325684 874.545105 48.117432 878.961365 48.117432 C 880.669556 48.117432 882.252686 48.284088 883.710876 48.579895 C 885.127441 48.871552 886.377319 49.200653 887.418884 49.579803 L 889.502014 38.70578 C 888.418823 38.243347 886.877258 37.830872 884.919067 37.368408 C 882.960938 36.955963 880.586182 36.701782 877.753052 36.701782 C 869.712158 36.701782 863.712708 38.83078 859.796387 43.038727 C 855.880066 47.242523 853.921997 53.121124 853.921997 60.657928 L 853.921997 122.777283 L 867.337341 122.777283 L 867.337341 75.994049 L 888.627075 75.994049 L 888.627075 64.782562 L 867.337341 64.782562 Z"/>
    <path id="path84" fill="#231f20" stroke="none" d="M 929.325867 66.659912 C 931.913147 65.918304 935.27533 65.214203 939.416626 64.551758 C 943.557922 63.885162 948.140869 63.551849 953.169556 63.551849 C 957.898254 63.551849 961.856262 64.201782 965.035156 65.493347 C 968.213989 66.789063 970.74292 68.597229 972.63446 70.922028 C 974.52179 73.259308 975.846619 76.063202 976.629883 79.354568 C 977.404846 82.650101 977.788147 86.249786 977.788147 90.170258 L 977.788147 122.775604 L 964.36853 122.775604 L 964.36853 92.274231 C 964.36853 89.170349 964.164368 86.533081 963.764404 84.349945 C 963.351929 82.17099 962.689514 80.387817 961.768738 79.021271 C 960.843872 77.654724 959.585632 76.658981 957.998291 76.034042 C 956.406738 75.404938 954.461121 75.084137 952.169617 75.084137 C 950.469788 75.084137 948.694946 75.196625 946.849304 75.4216 C 944.999451 75.64241 943.632935 75.825729 942.745483 75.971558 L 942.745483 122.775604 L 929.325867 122.775604 Z"/>
    <path id="path85" fill="#231f20" stroke="none" d="M 1024.031372 112.696533 C 1021.906616 113.117325 1018.740234 113.363129 1014.615601 113.363129 C 1011.199219 113.363129 1008.49115 112.73819 1006.53302 111.529968 C 1004.533203 110.280075 1003.533264 108.113617 1003.533264 104.905579 C 1003.533264 103.280716 1003.908264 101.94751 1004.616516 100.864273 C 1005.366455 99.781036 1006.324707 98.947784 1007.574585 98.368668 C 1008.782776 97.781219 1010.157654 97.364594 1011.657532 97.160446 C 1013.199036 96.947968 1014.698914 96.822983 1016.157104 96.822983 C 1017.865295 96.822983 1019.406799 96.947968 1020.823364 97.160446 C 1022.239929 97.364594 1023.281494 97.614578 1024.031372 97.827057 Z M 1035.863647 76.908127 C 1035.072021 74.075058 1033.780518 71.6586 1031.947388 69.658783 C 1030.155884 67.658966 1027.73938 66.117462 1024.697998 64.992554 C 1021.656616 63.867645 1017.948608 63.32605 1013.490723 63.32605 C 1009.782715 63.32605 1006.324707 63.617676 1003.075012 64.200958 C 999.825256 64.825897 997.3255 65.40918 995.658997 65.992462 L 997.3255 76.86647 C 998.950378 76.283188 1001.033508 75.741577 1003.616577 75.324936 C 1006.199707 74.866653 1009.074463 74.65834 1012.157471 74.65834 C 1014.448975 74.65834 1016.365417 74.949982 1017.865295 75.533264 C 1019.406799 76.116531 1020.615051 76.949799 1021.531616 78.037201 C 1022.448242 79.116257 1023.114807 80.324493 1023.489807 81.741028 C 1023.864746 83.157562 1024.031372 84.615768 1024.031372 86.157288 L 1024.031372 88.407074 C 1022.198242 87.952957 1020.448425 87.65715 1018.823547 87.448837 C 1017.198669 87.282181 1015.657166 87.157196 1014.157288 87.157196 C 1010.990906 87.157196 1007.949524 87.490494 1005.033142 88.119614 C 1002.075073 88.740387 999.53363 89.781952 997.3255 91.198486 C 995.075745 92.656693 993.325867 94.53569 992.034302 96.822983 C 990.742798 99.114441 990.117859 101.905853 990.117859 105.238876 C 990.117859 108.738556 990.659485 111.654953 991.825989 114.029739 C 992.950928 116.362854 994.534119 118.279358 996.575562 119.779221 C 998.617065 121.237411 1001.075195 122.324814 1003.94989 122.987259 C 1006.824646 123.653854 1010.032715 123.987167 1013.490723 123.987167 C 1018.740234 123.987167 1023.44812 123.699692 1027.656128 123.070587 C 1031.822388 122.403976 1034.947021 121.904022 1037.030273 121.44989 L 1037.030273 86.282272 C 1037.030273 82.865921 1036.613647 79.787033 1035.863647 76.908127"/>
    <path id="path86" fill="#231f20" stroke="none" d="M 1053.42334 66.659912 C 1056.01062 65.918304 1059.376953 65.214203 1063.514038 64.551758 C 1067.655396 63.885162 1072.238281 63.551849 1077.266968 63.551849 C 1081.995728 63.551849 1085.953613 64.201782 1089.128418 65.493347 C 1092.311401 66.789063 1094.844482 68.597229 1096.731812 70.922028 C 1098.619141 73.259308 1099.939941 76.063202 1100.727295 79.354568 C 1101.502197 82.650101 1101.885498 86.249786 1101.885498 90.170258 L 1101.885498 122.775604 L 1088.465942 122.775604 L 1088.465942 92.274231 C 1088.465942 89.170349 1088.257568 86.533081 1087.861816 84.349945 C 1087.453491 82.17099 1086.786865 80.387817 1085.862061 79.021271 C 1084.937134 77.654724 1083.682983 76.658981 1082.095703 76.034042 C 1080.50415 75.404938 1078.558472 75.084137 1076.26709 75.084137 C 1074.567261 75.084137 1072.792358 75.196625 1070.942505 75.4216 C 1069.096924 75.64241 1067.730347 75.825729 1066.842896 75.971558 L 1066.842896 122.775604 L 1053.42334 122.775604 Z"/>
    <path id="path87" fill="#231f20" stroke="none" d="M 1115.083496 93.826172 C 1115.083496 89.539063 1115.750122 85.526932 1117.079102 81.789764 C 1118.412354 78.065109 1120.312134 74.823746 1122.799438 72.090668 C 1125.265869 69.357574 1128.282349 67.211945 1131.831909 65.657898 C 1135.377441 64.103882 1139.372925 63.33313 1143.810059 63.33313 C 1149.280396 63.33313 1154.454956 64.328857 1159.333618 66.324524 L 1156.450562 77.302673 C 1154.900635 76.636078 1153.138306 76.081955 1151.180176 75.640335 C 1149.217896 75.194534 1147.134766 74.97789 1144.914063 74.97789 C 1139.664551 74.97789 1135.67334 76.623581 1132.931885 79.910782 C 1130.203003 83.202133 1128.836426 87.839218 1128.836426 93.826172 C 1128.836426 99.596481 1130.12793 104.154388 1132.71521 107.524918 C 1135.306641 110.891281 1139.664551 112.570282 1145.805664 112.570282 C 1148.097168 112.570282 1150.351074 112.345306 1152.567627 111.903687 C 1154.784058 111.457886 1156.708862 110.907944 1158.337891 110.237167 L 1160.221069 121.331985 C 1158.742065 122.069427 1156.500488 122.731857 1153.509155 123.327637 C 1150.521973 123.91925 1147.430542 124.215057 1144.251709 124.215057 C 1139.297974 124.215057 1134.98584 123.452621 1131.327881 121.944427 C 1127.6698 120.427902 1124.636841 118.319763 1122.232788 115.62001 C 1119.833008 112.924423 1118.033203 109.703888 1116.858398 105.975052 C 1115.679321 102.242065 1115.083496 98.188278 1115.083496 93.826172"/>
    <path id="path88" fill="#231f20" stroke="none" d="M 1204.430786 107.574081 C 1201.93103 110.986267 1198.473022 112.694443 1194.056641 112.694443 C 1189.598755 112.694443 1186.140747 110.986267 1183.686768 107.574081 C 1181.182861 104.195221 1179.974609 99.574814 1179.974609 93.700348 C 1179.974609 87.950867 1181.182861 83.3638 1183.686768 80.034927 C 1186.140747 76.660233 1189.598755 74.993729 1194.056641 74.993729 C 1198.473022 74.993729 1201.93103 76.660233 1204.430786 80.034927 C 1206.888916 83.3638 1208.142944 87.950867 1208.142944 93.700348 C 1208.142944 99.574814 1206.888916 104.195221 1204.430786 107.574081 M 1219.846069 81.243149 C 1218.471191 77.489334 1216.554688 74.327118 1214.096558 71.660706 C 1211.680054 68.990112 1208.763672 66.952789 1205.305664 65.490417 C 1201.847656 64.036407 1198.098022 63.328125 1194.056641 63.328125 C 1189.973755 63.328125 1186.224121 64.036407 1182.849365 65.490417 C 1179.432983 66.952789 1176.516602 68.990112 1174.016846 71.660706 C 1171.558716 74.327118 1169.642212 77.489334 1168.267334 81.243149 C 1166.892456 84.992813 1166.225952 89.113266 1166.225952 93.700348 C 1166.225952 98.283264 1166.892456 102.487045 1168.267334 106.240875 C 1169.642212 110.032181 1171.52124 113.236069 1173.97522 115.906647 C 1176.43335 118.573074 1179.349731 120.614548 1182.724365 122.110245 C 1186.140747 123.572617 1189.890381 124.322556 1194.056641 124.322556 C 1198.181274 124.322556 1201.972656 123.572617 1205.389038 122.110245 C 1208.851196 120.614548 1211.809204 118.573074 1214.225708 115.906647 C 1216.679688 113.236069 1218.558594 110.032181 1219.887695 106.240875 C 1221.220825 102.487045 1221.887451 98.283264 1221.887451 93.700348 C 1221.887451 89.113266 1221.18335 84.992813 1219.846069 81.243149"/>
    <path id="path89" fill="#231f20" stroke="none" d="M 1249.352905 122.770187 C 1245.640747 115.158386 1241.832764 106.417511 1237.941406 96.547592 C 1234.041748 86.677658 1230.496338 76.082794 1227.309082 64.771332 L 1241.616089 64.771332 C 1242.43689 68.025208 1243.370117 71.520721 1244.453369 75.249527 C 1245.524048 78.986694 1246.682251 82.715515 1247.903076 86.448502 C 1249.13208 90.189835 1250.398682 93.806168 1251.694336 97.326675 C 1252.994263 100.834702 1254.198242 103.992737 1255.314819 106.800812 C 1256.423096 103.992737 1257.610474 100.834702 1258.877075 97.326675 C 1260.135254 93.806168 1261.385132 90.189835 1262.605835 86.448502 C 1263.830688 82.715515 1265.001465 78.986694 1266.113892 75.249527 C 1267.222046 71.520721 1268.192871 68.025208 1269.005249 64.771332 L 1282.874878 64.771332 C 1279.679321 76.082794 1276.133789 86.677658 1272.242432 96.547592 C 1268.342773 106.417511 1264.543213 115.158386 1260.831055 122.770187 Z"/>
    <path id="path90" fill="#231f20" stroke="none" d="M 1320.338501 33.162537 L 1304.04834 52.577454 L 1310.710205 58.576904 L 1328.796021 41.036835 Z M 1322.588257 112.696945 C 1320.421875 113.113571 1317.297119 113.363556 1313.130859 113.363556 C 1309.756104 113.363556 1307.048096 112.738602 1305.048218 111.53038 C 1303.048462 110.280502 1302.044312 108.114029 1302.044312 104.905991 C 1302.044312 103.281143 1302.423462 101.947922 1303.17334 100.864685 C 1303.881714 99.781464 1304.881592 98.948196 1306.089844 98.364914 C 1307.339722 97.781647 1308.672852 97.365005 1310.214355 97.156693 C 1311.714233 96.94838 1313.214111 96.823395 1314.709839 96.823395 C 1316.380493 96.823395 1317.963745 96.94838 1319.338623 97.156693 C 1320.755127 97.365005 1321.834229 97.61499 1322.588257 97.827469 Z M 1334.378906 76.908554 C 1333.58728 74.07547 1332.295776 71.659027 1330.500122 69.65921 C 1328.671021 67.659393 1326.254639 66.117859 1323.254883 64.992981 C 1320.213501 63.868073 1316.463867 63.326447 1312.047607 63.326447 C 1308.3396 63.326447 1304.839966 63.618103 1301.631836 64.201385 C 1298.340454 64.826324 1295.882446 65.409607 1294.174194 65.992889 L 1295.840698 76.866882 C 1297.465576 76.2836 1299.590332 75.741989 1302.173462 75.325363 C 1304.756592 74.867065 1307.585449 74.658752 1310.710205 74.658752 C 1313.005859 74.658752 1314.876465 74.950394 1316.422241 75.533676 C 1317.921997 76.116959 1319.171875 76.950211 1320.084351 78.037613 C 1321.005127 79.116684 1321.630005 80.324905 1322.000854 81.74144 C 1322.380005 83.157974 1322.588257 84.61618 1322.588257 86.1577 L 1322.588257 88.407501 C 1320.713501 87.949203 1318.963623 87.657562 1317.380371 87.449249 C 1315.713867 87.282593 1314.172363 87.157608 1312.714233 87.157608 C 1309.501953 87.157608 1306.464722 87.490921 1303.54834 88.11586 C 1300.631958 88.740799 1298.044678 89.782379 1295.840698 91.198914 C 1293.632568 92.657104 1291.882813 94.531937 1290.587036 96.823395 C 1289.299683 99.114853 1288.633057 101.906265 1288.633057 105.239288 C 1288.633057 108.738968 1289.216309 111.65538 1290.341187 114.030151 C 1291.507813 116.363266 1293.090942 118.27977 1295.132446 119.779633 C 1297.132324 121.237823 1299.63208 122.32106 1302.506836 122.987671 C 1305.38147 123.654266 1308.547852 123.987579 1312.047607 123.987579 C 1317.297119 123.987579 1322.000854 123.695938 1326.167114 123.070999 C 1330.333374 122.404388 1333.45813 121.904434 1335.54126 121.446152 L 1335.54126 86.282684 C 1335.54126 82.866333 1335.17041 79.783279 1334.378906 76.908554"/>
    <path id="path91" fill="#231f20" stroke="none" d="M 1351.963989 66.659912 C 1354.551147 65.918304 1357.917603 65.214203 1362.050537 64.551758 C 1366.195923 63.885162 1370.783081 63.551849 1375.811768 63.551849 C 1380.532104 63.551849 1384.490112 64.201782 1387.673218 65.493347 C 1390.852051 66.789063 1393.389282 68.597229 1395.268311 70.922028 C 1397.15564 73.259308 1398.484741 76.063202 1399.263794 79.354568 C 1400.034546 82.650101 1400.430298 86.249786 1400.430298 90.170258 L 1400.430298 122.775604 L 1387.002441 122.775604 L 1387.002441 92.274231 C 1387.002441 89.170349 1386.802368 86.533081 1386.398315 84.349945 C 1385.998291 82.17099 1385.323364 80.387817 1384.40686 79.021271 C 1383.473511 77.654724 1382.219482 76.658981 1380.62793 76.034042 C 1379.040649 75.404938 1377.094971 75.084137 1374.807617 75.084137 C 1373.103638 75.084137 1371.324707 75.196625 1369.487305 75.4216 C 1367.641724 75.64241 1366.270996 75.825729 1365.379395 75.971558 L 1365.379395 122.775604 L 1351.963989 122.775604 Z"/>
    <path id="path92" fill="#231f20" stroke="none" d="M 1451.824341 107.574081 C 1449.366333 110.986267 1445.908203 112.694443 1441.454468 112.694443 C 1437.034058 112.694443 1433.57605 110.986267 1431.080444 107.574081 C 1428.622314 104.195221 1427.368286 99.574814 1427.368286 93.700348 C 1427.368286 87.950867 1428.622314 83.3638 1431.080444 80.034927 C 1433.57605 76.660233 1437.034058 74.993729 1441.454468 74.993729 C 1445.908203 74.993729 1449.366333 76.660233 1451.824341 80.034927 C 1454.282471 83.3638 1455.536499 87.950867 1455.536499 93.700348 C 1455.536499 99.574814 1454.282471 104.195221 1451.824341 107.574081 M 1467.239624 81.243149 C 1465.864746 77.489334 1463.948242 74.327118 1461.53186 71.660706 C 1459.07373 68.990112 1456.157349 66.952789 1452.699341 65.490417 C 1449.287109 64.036407 1445.533325 63.328125 1441.454468 63.328125 C 1437.367432 63.328125 1433.663574 64.036407 1430.243042 65.490417 C 1426.872559 66.952789 1423.910278 68.990112 1421.452148 71.660706 C 1418.952393 74.327118 1417.035889 77.489334 1415.661011 81.243149 C 1414.286133 84.992813 1413.619507 89.113266 1413.619507 93.700348 C 1413.619507 98.283264 1414.286133 102.487045 1415.661011 106.240875 C 1417.035889 110.032181 1418.952393 113.236069 1421.368896 115.906647 C 1423.826904 118.573074 1426.743408 120.614548 1430.159668 122.110245 C 1433.534424 123.572617 1437.329834 124.322556 1441.454468 124.322556 C 1445.574951 124.322556 1449.366333 123.572617 1452.824341 122.110245 C 1456.244873 120.614548 1459.202881 118.573074 1461.65686 115.906647 C 1464.073242 113.236069 1465.952271 110.032181 1467.28125 106.240875 C 1468.614502 102.487045 1469.281128 98.283264 1469.281128 93.700348 C 1469.281128 89.113266 1468.614502 84.992813 1467.239624 81.243149"/>
    <path id="path93" fill="#231f20" stroke="none" d="M 564.698364 255.851364 L 564.698364 179.000061 L 614.048035 179.000061 L 614.048035 190.861465 L 578.672119 190.861465 L 578.672119 209.826401 L 610.165039 209.826401 L 610.165039 221.471161 L 578.672119 221.471161 L 578.672119 243.981613 L 616.710327 243.981613 L 616.710327 255.851364 Z"/>
    <path id="path94" fill="#231f20" stroke="none" d="M 641.522644 255.851364 C 637.810486 248.235382 634.002441 239.494522 630.115295 229.624588 C 626.211487 219.75882 622.670166 209.163956 619.474609 197.848328 L 633.789978 197.848328 C 634.602417 201.102203 635.548157 204.597717 636.623047 208.326538 C 637.702148 212.067871 638.852051 215.796692 640.081055 219.525513 C 641.301819 223.270996 642.564209 226.883179 643.859924 230.403687 C 645.15979 233.911697 646.372192 237.069733 647.480408 239.881989 C 648.596985 237.069733 649.788513 233.911697 651.046753 230.403687 C 652.309143 226.883179 653.550659 223.270996 654.771423 219.525513 C 656.000488 215.796692 657.166992 212.067871 658.283569 208.326538 C 659.391846 204.597717 660.358398 201.102203 661.183289 197.848328 L 675.044556 197.848328 C 671.857361 209.163956 668.307678 219.75882 664.41217 229.624588 C 660.508362 239.494522 656.70874 248.235382 652.996582 255.851364 Z"/>
    <path id="path95" fill="#231f20" stroke="none" d="M 717.960205 209.940979 C 716.85199 209.570175 715.322937 209.174377 713.360657 208.770248 C 711.394165 208.370285 709.123535 208.161972 706.536255 208.161972 C 705.057251 208.161972 703.490723 208.311951 701.820007 208.607758 C 700.157654 208.903564 698.9953 209.16188 698.332825 209.38269 L 698.332825 255.853455 L 684.913208 255.853455 L 684.913208 200.625153 C 687.500488 199.66275 690.72937 198.750336 694.612366 197.900406 C 698.503662 197.058823 702.803284 196.63385 707.536194 196.63385 C 708.423584 196.63385 709.456848 196.679688 710.640076 196.804672 C 711.823303 196.904663 713.00647 197.058823 714.189697 197.237961 C 715.372925 197.429611 716.518677 197.646271 717.626892 197.900406 C 718.739319 198.171219 719.622559 198.404526 720.289185 198.625336 Z"/>
    <path id="path96" fill="#231f20" stroke="none" d="M 764.596802 240.642761 C 762.096985 244.059113 758.638977 245.767273 754.222717 245.767273 C 749.806458 245.767273 746.34845 244.059113 743.848694 240.642761 C 741.390564 237.268066 740.140686 232.643478 740.140686 226.81485 C 740.140686 221.019547 741.390564 216.478302 743.848694 213.107758 C 746.34845 209.728912 749.806458 208.066559 754.222717 208.066559 C 758.638977 208.066559 762.096985 209.728912 764.596802 213.107758 C 767.054871 216.478302 768.304749 221.019547 768.304749 226.81485 C 768.304749 232.643478 767.054871 237.268066 764.596802 240.642761 M 780.012024 214.315994 C 778.637146 210.603821 776.720703 207.399963 774.30426 204.72937 C 771.84613 202.062943 768.929749 200.021469 765.47168 198.563263 C 762.055359 197.150894 758.305664 196.39679 754.222717 196.39679 C 750.139771 196.39679 746.431763 197.150894 743.015442 198.563263 C 739.640747 200.021469 736.682678 202.062943 734.182922 204.72937 C 731.724792 207.399963 729.808289 210.603821 728.433411 214.315994 C 727.058533 218.061478 726.391968 222.227768 726.391968 226.81485 C 726.391968 231.393585 727.058533 235.559875 728.433411 239.313705 C 729.808289 243.100861 731.724792 246.308899 734.141235 248.975311 C 736.599365 251.645905 739.515747 253.683228 742.932129 255.18309 C 746.306763 256.641296 750.098083 257.395386 754.222717 257.395386 C 758.347351 257.395386 762.138672 256.641296 765.59668 255.18309 C 769.013062 253.683228 771.97113 251.645905 774.387573 248.975311 C 776.845642 246.308899 778.72052 243.100861 780.053711 239.313705 C 781.386902 235.559875 782.053528 231.393585 782.053528 226.81485 C 782.053528 222.227768 781.386902 218.061478 780.012024 214.315994"/>
    <path id="path97" fill="#231f20" stroke="none" d="M 831.007385 240.561508 C 828.757568 243.894531 825.216248 245.515228 820.300049 245.515228 C 818.091919 245.515228 816.008728 245.181915 814.050598 244.473648 C 812.092468 243.769547 810.509277 243.019623 809.342712 242.223846 L 809.342712 209.060211 C 810.675903 208.689423 812.009094 208.439453 813.383972 208.314453 C 814.75885 208.231125 816.050415 208.147797 817.34198 208.147797 C 823.299744 208.147797 827.63269 209.814316 830.340759 213.147339 C 833.048889 216.480377 834.423706 221.146606 834.423706 227.141907 C 834.423706 232.728882 833.257202 237.228485 831.007385 240.561508 M 846.089355 214.313904 C 844.714478 210.605911 842.756287 207.397873 840.214844 204.773102 C 837.673462 202.144196 834.590393 200.148529 830.965698 198.731995 C 827.341064 197.31546 823.258118 196.648849 818.675171 196.648849 C 814.217224 196.648849 810.009277 196.982162 806.009644 197.648758 C 802.01001 198.311203 798.677002 198.981979 795.927246 199.731903 L 795.927246 276.349915 L 809.342712 276.349915 L 809.342712 253.847794 C 810.800903 254.685211 812.717407 255.393494 815.00885 256.060089 C 817.300293 256.726685 819.800049 257.059998 822.549805 257.059998 C 826.591125 257.059998 830.257446 256.351746 833.465515 254.851868 C 836.673523 253.393677 839.339966 251.310516 841.506409 248.639938 C 843.631226 245.977676 845.297729 242.81131 846.422668 239.099152 C 847.589172 235.395325 848.172485 231.354019 848.172485 226.896088 C 848.172485 222.229858 847.464233 218.063568 846.089355 214.313904"/>
    <path id="path98" fill="#231f20" stroke="none" d="M 876.543213 246.200577 C 880.092896 246.200577 882.680176 245.775604 884.304993 244.929855 C 885.934021 244.079926 886.74646 242.617569 886.74646 240.546936 C 886.74646 238.626266 885.875671 237.034744 884.134216 235.77652 C 882.396851 234.526642 879.538757 233.151764 875.543335 231.672729 C 873.106018 230.785309 870.864563 229.8479 868.831421 228.847992 C 866.798279 227.852264 865.048462 226.681519 863.569397 225.352478 C 862.090393 224.023438 860.919617 222.415253 860.069702 220.532089 C 859.219788 218.648926 858.799011 216.340805 858.799011 213.599396 C 858.799011 208.270706 860.757141 204.083588 864.677612 201.013046 C 868.593933 197.946655 873.918457 196.409286 880.647034 196.409286 C 884.046692 196.409286 887.300598 196.725937 890.40448 197.350876 C 893.512512 197.984146 895.841431 198.588257 897.391296 199.179871 L 894.94989 210.045547 C 893.474976 209.383118 891.587708 208.778992 889.296204 208.220703 C 887.004761 207.666595 884.342529 207.387451 881.313599 207.387451 C 878.576355 207.387451 876.359924 207.85408 874.655884 208.778992 C 872.956055 209.699738 872.110291 211.120453 872.110291 213.041107 C 872.110291 213.999359 872.268616 214.853439 872.601929 215.590881 C 872.935242 216.340805 873.510193 217.019897 874.326782 217.644852 C 875.13916 218.278137 876.2099 218.903076 877.543152 219.536346 C 878.872192 220.161285 880.497009 220.802887 882.421875 221.469513 C 885.600708 222.652725 888.300476 223.823456 890.516968 224.965027 C 892.733398 226.114914 894.566589 227.406464 895.999756 228.847992 C 897.445496 230.293701 898.503723 231.931046 899.166138 233.780884 C 899.832764 235.630707 900.166077 237.847168 900.166077 240.434433 C 900.166077 245.979767 898.10791 250.179382 894.00415 253.024963 C 889.908691 255.870529 884.046692 257.291229 876.434875 257.291229 C 871.331177 257.291229 867.227417 256.862091 864.123535 256.016357 C 861.015442 255.166412 858.836487 254.478989 857.578308 253.962372 L 859.907227 242.763397 C 861.902893 243.584137 864.286011 244.354919 867.05658 245.088181 C 869.83136 245.829773 872.99353 246.200577 876.543213 246.200577"/>
    <path id="path99" fill="#231f20" stroke="none" d="M 926.115784 220.470428 C 927.807312 218.695587 929.62793 216.795761 931.548584 214.766785 C 933.47345 212.733643 935.348267 210.69632 937.206421 208.663177 C 939.047913 206.634186 940.806091 204.671875 942.468445 202.78038 C 944.143311 200.901382 945.559814 199.251541 946.743042 197.847488 L 962.599915 197.847488 C 958.912781 201.99295 955.017273 206.28006 950.930176 210.712982 C 946.830566 215.150085 942.722595 219.474686 938.589661 223.686798 C 940.806091 225.536621 943.126709 227.778091 945.559814 230.402863 C 947.99292 233.027618 950.359375 235.81485 952.642517 238.772919 C 954.92981 241.730988 957.062927 244.684875 959.062744 247.638779 C 961.058411 250.596832 962.712402 253.338257 964.045654 255.846359 L 948.517883 255.846359 C 947.188843 253.554901 945.647339 251.155121 943.909973 248.642853 C 942.172607 246.126419 940.310303 243.684967 938.314636 241.322693 C 936.319031 238.956238 934.277527 236.718933 932.21521 234.619141 C 930.144592 232.502655 928.11145 230.711151 926.115784 229.236298 L 926.115784 255.846359 L 912.696167 255.846359 L 912.696167 172.008194 L 926.115784 169.791733 Z"/>
    <path id="path100" fill="#231f20" stroke="none" d="M 1005.907654 240.642761 C 1003.407898 244.059113 999.991516 245.767273 995.533569 245.767273 C 991.11731 245.767273 987.659302 244.059113 985.159546 240.642761 C 982.701416 237.268066 981.451538 232.643478 981.451538 226.81485 C 981.451538 221.019547 982.701416 216.478302 985.159546 213.107758 C 987.659302 209.728912 991.11731 208.066559 995.533569 208.066559 C 999.991516 208.066559 1003.407898 209.728912 1005.907654 213.107758 C 1008.365784 216.478302 1009.615662 221.019547 1009.615662 226.81485 C 1009.615662 232.643478 1008.365784 237.268066 1005.907654 240.642761 M 1021.322876 214.315994 C 1019.947998 210.603821 1018.031555 207.399963 1015.615112 204.72937 C 1013.156982 202.062943 1010.240601 200.021469 1006.782593 198.563263 C 1003.366211 197.150894 999.616577 196.39679 995.533569 196.39679 C 991.450623 196.39679 987.742615 197.150894 984.326294 198.563263 C 980.951599 200.021469 977.99353 202.062943 975.5354 204.72937 C 973.035645 207.399963 971.119141 210.603821 969.744263 214.315994 C 968.369385 218.061478 967.70282 222.227768 967.70282 226.81485 C 967.70282 231.393585 968.369385 235.559875 969.744263 239.313705 C 971.119141 243.100861 973.035645 246.308899 975.452087 248.975311 C 977.910217 251.645905 980.826599 253.683228 984.242981 255.18309 C 987.617676 256.641296 991.408997 257.395386 995.533569 257.395386 C 999.658203 257.395386 1003.449524 256.641296 1006.907532 255.18309 C 1010.323914 253.683228 1013.281982 251.645905 1015.740051 248.975311 C 1018.156555 246.308899 1020.031372 243.100861 1021.364563 239.313705 C 1022.697754 235.559875 1023.36438 231.393585 1023.36438 226.81485 C 1023.36438 222.227768 1022.697754 218.061478 1021.322876 214.315994"/>
    <path id="path101" fill="#231f20" stroke="none" d="M 1084.808716 254.073608 C 1082.221558 254.740204 1078.855103 255.427643 1074.713867 256.127594 C 1070.576782 256.823364 1066.0271 257.181641 1061.077637 257.181641 C 1056.419678 257.181641 1052.52002 256.515045 1049.370361 255.186005 C 1046.237305 253.852783 1043.724976 252.007126 1041.841919 249.640686 C 1039.950317 247.274231 1038.600464 244.445313 1037.788086 241.158112 C 1036.975586 237.86676 1036.567383 234.258759 1036.567383 230.342438 L 1036.567383 197.849579 L 1049.986938 197.849579 L 1049.986938 228.234299 C 1049.986938 234.446228 1050.895142 238.883331 1052.70752 241.541412 C 1054.511597 244.203674 1057.673706 245.536896 1062.181641 245.536896 C 1063.810669 245.536896 1065.527222 245.461884 1067.3479 245.311905 C 1069.156006 245.166077 1070.501709 244.978607 1071.38916 244.761963 L 1071.38916 197.849579 L 1084.808716 197.849579 Z"/>
    <path id="path102" fill="#231f20" stroke="none" d="M 1175.299683 254.073608 C 1172.712402 254.740204 1169.346069 255.427643 1165.208862 256.127594 C 1161.067627 256.823364 1156.518066 257.181641 1151.568481 257.181641 C 1146.910645 257.181641 1143.015137 256.515045 1139.861206 255.186005 C 1136.728149 253.852783 1134.215942 252.007126 1132.332764 249.640686 C 1130.441284 247.274231 1129.091431 244.445313 1128.278931 241.158112 C 1127.466553 237.86676 1127.058228 234.258759 1127.058228 230.342438 L 1127.058228 197.849579 L 1140.477905 197.849579 L 1140.477905 228.234299 C 1140.477905 234.446228 1141.386108 238.883331 1143.198486 241.541412 C 1145.002441 244.203674 1148.164673 245.536896 1152.676758 245.536896 C 1154.301636 245.536896 1156.026367 245.461884 1157.838745 245.311905 C 1159.646973 245.166077 1160.992676 244.978607 1161.880005 244.761963 L 1161.880005 197.849579 L 1175.299683 197.849579 Z"/>
    <path id="path103" fill="#231f20" stroke="none" d="M 1192.379761 199.736908 C 1194.967041 198.9953 1198.333374 198.295364 1202.478882 197.628769 C 1206.611816 196.966324 1211.194702 196.633026 1216.223389 196.633026 C 1220.952148 196.633026 1224.910156 197.282959 1228.09314 198.570343 C 1231.267822 199.870224 1233.801025 201.674225 1235.692505 204.003174 C 1237.575684 206.340469 1238.896362 209.144379 1239.683838 212.43158 C 1240.450317 215.731277 1240.842041 219.330948 1240.842041 223.251434 L 1240.842041 255.8526 L 1227.422363 255.8526 L 1227.422363 225.351227 C 1227.422363 222.247345 1227.214111 219.614258 1226.818237 217.431122 C 1226.410034 215.247986 1225.739258 213.468994 1224.818481 212.098267 C 1223.885254 210.731735 1222.631226 209.740158 1221.043823 209.111053 C 1219.460571 208.486115 1217.515015 208.165298 1215.223511 208.165298 C 1213.523682 208.165298 1211.748779 208.277802 1209.907349 208.498596 C 1208.061646 208.719421 1206.686768 208.90274 1205.799316 209.052719 L 1205.799316 255.8526 L 1192.379761 255.8526 Z"/>
    <path id="path104" fill="#231f20" stroke="none" d="M 1257.38501 255.8526 L 1270.800415 255.8526 L 1270.800415 197.85791 L 1257.38501 197.85791 Z M 1269.800659 174.776688 C 1268.134155 173.314316 1266.217651 172.564392 1264.009521 172.564392 C 1261.718018 172.564392 1259.759888 173.314316 1258.13501 174.776688 C 1256.510132 176.272385 1255.718506 178.276367 1255.718506 180.896973 C 1255.718506 183.396729 1256.510132 185.400711 1258.13501 186.854736 C 1259.759888 188.358765 1261.718018 189.104538 1264.009521 189.104538 C 1266.217651 189.104538 1268.134155 188.358765 1269.800659 186.854736 C 1271.425537 185.400711 1272.217041 183.396729 1272.217041 180.896973 C 1272.217041 178.276367 1271.425537 176.272385 1269.800659 174.776688"/>
    <path id="path105" fill="#231f20" stroke="none" d="M 1287.965698 255.8526 L 1301.385132 255.8526 L 1301.385132 197.85791 L 1287.965698 197.85791 Z M 1302.172607 166.235809 L 1285.84082 185.64653 L 1292.506958 191.650146 L 1310.588623 174.110077 Z"/>
</svg>
